<svg xmlns="http://www.w3.org/2000/svg" xmlns:xlink="http://www.w3.org/1999/xlink" xmlns:lucid="lucid" width="2141.25" height="1658"><g transform="translate(-298.74691358024694 -20)" lucid:page-tab-id="0_0"><path d="M660 836.47a6 6 0 0 1 6-6h348a6 6 0 0 1 6 6v372a6 6 0 0 1-6 6H666a6 6 0 0 1-6-6z" stroke="#3a414a" stroke-width="4" fill="#fff"/><path d="M660 889.13h360m-360 261.5h360" stroke="#3a414a" stroke-width="4" fill="none"/><use xlink:href="#a" transform="matrix(1,0,0,1,668,838.4675912238522) translate(120.79012345679013 28.61111111111111)"/><use xlink:href="#b" transform="matrix(1,0,0,1,672,897.1342578905188) translate(0 32.33333333333333)"/><use xlink:href="#c" transform="matrix(1,0,0,1,672,897.1342578905188) translate(0 64.33333333333333)"/><use xlink:href="#d" transform="matrix(1,0,0,1,672,897.1342578905188) translate(0 96.33333333333333)"/><use xlink:href="#e" transform="matrix(1,0,0,1,672,897.1342578905188) translate(0 128.33333333333334)"/><use xlink:href="#f" transform="matrix(1,0,0,1,672,897.1342578905188) translate(0 160.33333333333334)"/><use xlink:href="#g" transform="matrix(1,0,0,1,672,897.1342578905188) translate(0 192.33333333333334)"/><use xlink:href="#h" transform="matrix(1,0,0,1,672,897.1342578905188) translate(0 224.33333333333334)"/><use xlink:href="#i" transform="matrix(1,0,0,1,672,1158.6342578905187) translate(0 28.944444444444443)"/><path d="M660 1306a6 6 0 0 1 6-6h348a6 6 0 0 1 6 6v346a6 6 0 0 1-6 6H666a6 6 0 0 1-6-6z" stroke="#3a414a" stroke-width="4" fill="#fff"/><path d="M660 1358.67h360m-360 69.5h360" stroke="#3a414a" stroke-width="4" fill="none"/><use xlink:href="#j" transform="matrix(1,0,0,1,668,1308) translate(82.32098765432099 28.61111111111111)"/><use xlink:href="#k" transform="matrix(1,0,0,1,672,1366.6666666666667) translate(0 32.33333333333333)"/><use xlink:href="#l" transform="matrix(1,0,0,1,672,1436.1666666666667) translate(0 32.33333333333333)"/><use xlink:href="#m" transform="matrix(1,0,0,1,672,1436.1666666666667) translate(128.5185185185185 32.33333333333333)"/><use xlink:href="#n" transform="matrix(1,0,0,1,672,1436.1666666666667) translate(0 64.33333333333333)"/><use xlink:href="#o" transform="matrix(1,0,0,1,672,1436.1666666666667) translate(0 96.33333333333333)"/><use xlink:href="#p" transform="matrix(1,0,0,1,672,1436.1666666666667) translate(0 128.33333333333334)"/><use xlink:href="#q" transform="matrix(1,0,0,1,672,1436.1666666666667) translate(0 160.33333333333334)"/><use xlink:href="#r" transform="matrix(1,0,0,1,672,1436.1666666666667) translate(0 192.33333333333334)"/><path d="M1420 46a6 6 0 0 1 6-6h288a6 6 0 0 1 6 6v506a6 6 0 0 1-6 6h-288a6 6 0 0 1-6-6z" stroke="#3a414a" stroke-width="4" fill="#fff"/><path d="M1420 98.67h300m-300 325.5h300" stroke="#3a414a" stroke-width="4" fill="none"/><use xlink:href="#s" transform="matrix(1,0,0,1,1428,48) translate(94.64197530864197 28.61111111111111)"/><use xlink:href="#t" transform="matrix(1,0,0,1,1432,106.66666666666667) translate(0 32.33333333333333)"/><use xlink:href="#u" transform="matrix(1,0,0,1,1432,106.66666666666667) translate(0 64.33333333333333)"/><use xlink:href="#v" transform="matrix(1,0,0,1,1432,106.66666666666667) translate(0 96.33333333333333)"/><use xlink:href="#w" transform="matrix(1,0,0,1,1432,106.66666666666667) translate(0 128.33333333333334)"/><use xlink:href="#x" transform="matrix(1,0,0,1,1432,106.66666666666667) translate(0 160.33333333333334)"/><use xlink:href="#y" transform="matrix(1,0,0,1,1432,106.66666666666667) translate(0 192.33333333333334)"/><use xlink:href="#z" transform="matrix(1,0,0,1,1432,106.66666666666667) translate(0 224.33333333333334)"/><use xlink:href="#A" transform="matrix(1,0,0,1,1432,106.66666666666667) translate(0 256.3333333333333)"/><use xlink:href="#B" transform="matrix(1,0,0,1,1432,106.66666666666667) translate(0 288.3333333333333)"/><use xlink:href="#C" transform="matrix(1,0,0,1,1432,432.1666666666667) translate(0 32.33333333333333)"/><use xlink:href="#D" transform="matrix(1,0,0,1,1432,432.1666666666667) translate(139.1111111111111 32.33333333333333)"/><use xlink:href="#E" transform="matrix(1,0,0,1,1432,432.1666666666667) translate(0 64.33333333333333)"/><use xlink:href="#F" transform="matrix(1,0,0,1,1432,432.1666666666667) translate(0 96.33333333333333)"/><path d="M1140 836.47a6 6 0 0 1 6-6h328a6 6 0 0 1 6 6v404a6 6 0 0 1-6 6h-328a6 6 0 0 1-6-6z" stroke="#3a414a" stroke-width="4" fill="#fff"/><path d="M1140 889.13h340m-340 293.5h340" stroke="#3a414a" stroke-width="4" fill="none"/><use xlink:href="#G" transform="matrix(1,0,0,1,1148,838.4675912238521) translate(108.76543209876542 28.61111111111111)"/><use xlink:href="#H" transform="matrix(1,0,0,1,1152,897.1342578905187) translate(0 32.33333333333333)"/><use xlink:href="#I" transform="matrix(1,0,0,1,1152,897.1342578905187) translate(0 64.33333333333333)"/><use xlink:href="#J" transform="matrix(1,0,0,1,1152,897.1342578905187) translate(0 96.33333333333333)"/><use xlink:href="#K" transform="matrix(1,0,0,1,1152,897.1342578905187) translate(0 128.33333333333334)"/><use xlink:href="#L" transform="matrix(1,0,0,1,1152,897.1342578905187) translate(0 160.33333333333334)"/><use xlink:href="#M" transform="matrix(1,0,0,1,1152,897.1342578905187) translate(0 192.33333333333334)"/><use xlink:href="#N" transform="matrix(1,0,0,1,1152,897.1342578905187) translate(0 224.33333333333334)"/><use xlink:href="#O" transform="matrix(1,0,0,1,1152,897.1342578905187) translate(0 256.3333333333333)"/><use xlink:href="#i" transform="matrix(1,0,0,1,1152,1190.6342578905187) translate(0 28.944444444444443)"/><path d="M1600 836.47a6 6 0 0 1 6-6h348a6 6 0 0 1 6 6v474a6 6 0 0 1-6 6h-348a6 6 0 0 1-6-6z" stroke="#3a414a" stroke-width="4" fill="#fff"/><path d="M1600 889.13h360m-360 357.5h360" stroke="#3a414a" stroke-width="4" fill="none"/><g><use xlink:href="#P" transform="matrix(1,0,0,1,1608,838.4675912238522) translate(105.03703703703704 28.61111111111111)"/></g><g><use xlink:href="#Q" transform="matrix(1,0,0,1,1612,897.1342578905188) translate(0 32.33333333333333)"/><use xlink:href="#R" transform="matrix(1,0,0,1,1612,897.1342578905188) translate(0 64.33333333333333)"/><use xlink:href="#S" transform="matrix(1,0,0,1,1612,897.1342578905188) translate(0 96.33333333333333)"/><use xlink:href="#T" transform="matrix(1,0,0,1,1612,897.1342578905188) translate(0 128.33333333333334)"/><use xlink:href="#U" transform="matrix(1,0,0,1,1612,897.1342578905188) translate(0 160.33333333333334)"/><use xlink:href="#V" transform="matrix(1,0,0,1,1612,897.1342578905188) translate(0 192.33333333333334)"/><use xlink:href="#I" transform="matrix(1,0,0,1,1612,897.1342578905188) translate(0 224.33333333333334)"/><use xlink:href="#J" transform="matrix(1,0,0,1,1612,897.1342578905188) translate(0 256.3333333333333)"/><use xlink:href="#K" transform="matrix(1,0,0,1,1612,897.1342578905188) translate(0 288.3333333333333)"/><use xlink:href="#W" transform="matrix(1,0,0,1,1612,897.1342578905188) translate(0 320.3333333333333)"/></g><g><use xlink:href="#X" transform="matrix(1,0,0,1,1612,1254.6342578905187) translate(0 32.33333333333333)"/></g><path d="M2080 836.47a6 6 0 0 1 6-6h328a6 6 0 0 1 6 6v282a6 6 0 0 1-6 6h-328a6 6 0 0 1-6-6z" stroke="#3a414a" stroke-width="4" fill="#fff"/><path d="M2080 889.13h340m-340 165.5h340" stroke="#3a414a" stroke-width="4" fill="none"/><g><use xlink:href="#Y" transform="matrix(1,0,0,1,2088,838.4675912238521) translate(39.82716049382715 28.61111111111111)"/></g><g><use xlink:href="#Z" transform="matrix(1,0,0,1,2092,897.1342578905187) translate(0 32.33333333333333)"/><use xlink:href="#aa" transform="matrix(1,0,0,1,2092,897.1342578905187) translate(0 64.33333333333333)"/><use xlink:href="#T" transform="matrix(1,0,0,1,2092,897.1342578905187) translate(0 96.33333333333333)"/><use xlink:href="#ab" transform="matrix(1,0,0,1,2092,897.1342578905187) translate(0 128.33333333333334)"/></g><g><use xlink:href="#X" transform="matrix(1,0,0,1,2092,1062.6342578905187) translate(0 32.33333333333333)"/></g><path d="M1310 826.97V676a6 6 0 0 1 6-6h248a6 6 0 0 0 6-6v-83.38" stroke="#3a414a" stroke-width="3" fill="none"/><path d="M1311.5 828.47h-3v-1.54h3z" stroke="#3a414a" stroke-width=".05" fill="#3a414a"/><path d="M1570 564.85l4.63 14.27h-9.27z" stroke="#3a414a" stroke-width="3" fill="#3a414a"/><path d="M1780 826.97V676a6 6 0 0 0-6-6h-198a6 6 0 0 1-6-6v-83.38" stroke="#3a414a" stroke-width="3" fill="none"/><path d="M1781.5 828.47h-3v-1.54h3z" stroke="#3a414a" stroke-width=".05" fill="#3a414a"/><path d="M1570 564.85l4.63 14.27h-9.27z" stroke="#3a414a" stroke-width="3" fill="#3a414a"/><path d="M2250 826.97V676a6 6 0 0 0-6-6h-668a6 6 0 0 1-6-6v-83.38" stroke="#3a414a" stroke-width="3" fill="none"/><path d="M2251.5 828.47h-3v-1.54h3z" stroke="#3a414a" stroke-width=".05" fill="#3a414a"/><path d="M1570 564.85l4.63 14.27h-9.27z" stroke="#3a414a" stroke-width="3" fill="#3a414a"/><path d="M840 1296.5v-59.4" stroke="#3a414a" stroke-width="3" fill="none"/><path d="M841.5 1298h-3v-1.54h3z" stroke="#3a414a" stroke-width=".05" fill="#3a414a"/><path d="M840 1221.32l4.63 14.27h-9.26z" stroke="#3a414a" stroke-width="3" fill="#3a414a"/><path d="M840 826.97V676a6 6 0 0 1 6-6h718a6 6 0 0 0 6-6v-83.38" stroke="#3a414a" stroke-width="3" fill="none"/><path d="M841.5 828.47h-3v-1.54h3z" stroke="#3a414a" stroke-width=".05" fill="#3a414a"/><path d="M1570 564.85l4.63 14.27h-9.27z" stroke="#3a414a" stroke-width="3" fill="#3a414a"/><path d="M441.5 1472.94l.06.76.17.7.26.64.36.6.46.54.54.46.6.37.65.28.7.16.76.06H656.5v3H445.94l-1.1-.1-1.16-.26-1.1-.45-1-.63-.9-.76-.75-.9-.62-1-.44-1.08-.27-1.15-.1-1.1V898.44h3zm975-1172.44H446.06l-.76.06-.7.17-.64.26-.6.36-.54.46-.46.54-.37.6-.27.65-.17.7-.06.76v566.72h-3V304.94l.1-1.1.26-1.16.45-1.1.63-1 .76-.9.9-.75 1-.62 1.08-.44 1.15-.27 1.1-.1h970.57z" stroke="#3a414a" stroke-width=".05" fill="#3a414a"/><path d="M658 1480.5h-1.54v-3H658z" fill="#3a414a"/><path d="M658.02 1480.53h-1.58v-3.06h1.58zm-1.53-3v2.94h1.48v-2.94z" stroke="#3a414a" stroke-width=".05" fill="#3a414a"/><path d="M1418 300.5h-1.54v-3h1.54z" fill="#3a414a"/><path d="M1418.03 300.52h-1.6v-3.04h1.6zm-1.54-3v2.96h1.47v-2.96z" stroke="#3a414a" stroke-width=".05" fill="#3a414a"/><g><use xlink:href="#ac" transform="matrix(1,0,0,1,302.74691358024694,871.7802180121618) translate(0 17.77777777777778)"/><use xlink:href="#ad" transform="matrix(1,0,0,1,302.74691358024694,871.7802180121618) translate(141.5432098765432 17.77777777777778)"/></g><defs><path fill="#3a414a" d="M230 0l2-204L168 0h-37L68-204 70 0H24v-248h70l56 185 57-185h69V0h-46" id="ae"/><path fill="#3a414a" d="M110-194c64 0 96 36 96 99 0 64-35 99-97 99-61 0-95-36-95-99 0-62 34-99 96-99zm-1 164c35 0 45-28 45-65 0-40-10-65-43-65-34 0-45 26-45 65 0 36 10 65 43 65" id="af"/><path fill="#3a414a" d="M88-194c31-1 46 15 58 34l-1-101h50l1 261h-48c-2-10 0-23-3-31C134-8 116 4 84 4 32 4 16-41 15-95c0-56 19-97 73-99zm17 164c33 0 40-30 41-66 1-37-9-64-41-64s-38 30-39 65c0 43 13 65 39 65" id="ag"/><path fill="#3a414a" d="M185-48c-13 30-37 53-82 52C43 2 14-33 14-96s30-98 90-98c62 0 83 45 84 108H66c0 31 8 55 39 56 18 0 30-7 34-22zm-45-69c5-46-57-63-70-21-2 6-4 13-4 21h74" id="ah"/><path fill="#3a414a" d="M25 0v-261h50V0H25" id="ai"/><g id="a"><use transform="matrix(0.09876543209876544,0,0,0.09876543209876544,0,0)" xlink:href="#ae"/><use transform="matrix(0.09876543209876544,0,0,0.09876543209876544,29.530864197530867,0)" xlink:href="#af"/><use transform="matrix(0.09876543209876544,0,0,0.09876543209876544,51.1604938271605,0)" xlink:href="#ag"/><use transform="matrix(0.09876543209876544,0,0,0.09876543209876544,72.79012345679013,0)" xlink:href="#ah"/><use transform="matrix(0.09876543209876544,0,0,0.09876543209876544,92.54320987654322,0)" xlink:href="#ai"/></g><path fill="#1071e5" d="M24-231v-30h32v30H24zM24 0v-190h32V0H24" id="aj"/><path fill="#1071e5" d="M117-194c89-4 53 116 60 194h-32v-121c0-31-8-49-39-48C34-167 62-67 57 0H25l-1-190h30c1 10-1 24 2 32 11-22 29-35 61-36" id="ak"/><path fill="#1071e5" d="M115-194c55 1 70 41 70 98S169 2 115 4C84 4 66-9 55-30l1 105H24l-1-265h31l2 30c10-21 28-34 59-34zm-8 174c40 0 45-34 45-75s-6-73-45-74c-42 0-51 32-51 76 0 43 10 73 51 73" id="al"/><path fill="#1071e5" d="M84 4C-5 8 30-112 23-190h32v120c0 31 7 50 39 49 72-2 45-101 50-169h31l1 190h-30c-1-10 1-25-2-33-11 22-28 36-60 37" id="am"/><path fill="#1071e5" d="M59-47c-2 24 18 29 38 22v24C64 9 27 4 27-40v-127H5v-23h24l9-43h21v43h35v23H59v120" id="an"/><path fill="#1071e5" d="M135-143c-3-34-86-38-87 0 15 53 115 12 119 90S17 21 10-45l28-5c4 36 97 45 98 0-10-56-113-15-118-90-4-57 82-63 122-42 12 7 21 19 24 35" id="ao"/><g id="b"><use transform="matrix(0.07407407407407407,0,0,0.07407407407407407,0,0)" xlink:href="#aj"/><use transform="matrix(0.07407407407407407,0,0,0.07407407407407407,5.851851851851851,0)" xlink:href="#ak"/><use transform="matrix(0.07407407407407407,0,0,0.07407407407407407,20.666666666666664,0)" xlink:href="#al"/><use transform="matrix(0.07407407407407407,0,0,0.07407407407407407,35.48148148148148,0)" xlink:href="#am"/><use transform="matrix(0.07407407407407407,0,0,0.07407407407407407,50.29629629629629,0)" xlink:href="#an"/><use transform="matrix(0.07407407407407407,0,0,0.07407407407407407,57.703703703703695,0)" xlink:href="#ao"/></g><path fill="#1071e5" d="M100-194c62-1 85 37 85 99 1 63-27 99-86 99S16-35 15-95c0-66 28-99 85-99zM99-20c44 1 53-31 53-75 0-43-8-75-51-75s-53 32-53 75 10 74 51 75" id="ap"/><g id="c"><use transform="matrix(0.07407407407407407,0,0,0.07407407407407407,0,0)" xlink:href="#ap"/><use transform="matrix(0.07407407407407407,0,0,0.07407407407407407,14.814814814814813,0)" xlink:href="#am"/><use transform="matrix(0.07407407407407407,0,0,0.07407407407407407,29.629629629629626,0)" xlink:href="#an"/><use transform="matrix(0.07407407407407407,0,0,0.07407407407407407,37.03703703703703,0)" xlink:href="#al"/><use transform="matrix(0.07407407407407407,0,0,0.07407407407407407,51.85185185185185,0)" xlink:href="#am"/><use transform="matrix(0.07407407407407407,0,0,0.07407407407407407,66.66666666666666,0)" xlink:href="#an"/><use transform="matrix(0.07407407407407407,0,0,0.07407407407407407,74.07407407407406,0)" xlink:href="#ao"/></g><path fill="#1071e5" d="M24 0v-261h32V0H24" id="aq"/><path fill="#1071e5" d="M141-36C126-15 110 5 73 4 37 3 15-17 15-53c-1-64 63-63 125-63 3-35-9-54-41-54-24 1-41 7-42 31l-33-3c5-37 33-52 76-52 45 0 72 20 72 64v82c-1 20 7 32 28 27v20c-31 9-61-2-59-35zM48-53c0 20 12 33 32 33 41-3 63-29 60-74-43 2-92-5-92 41" id="ar"/><path fill="#1071e5" d="M179-190L93 31C79 59 56 82 12 73V49c39 6 53-20 64-50L1-190h34L92-34l54-156h33" id="as"/><path fill="#1071e5" d="M100-194c63 0 86 42 84 106H49c0 40 14 67 53 68 26 1 43-12 49-29l28 8c-11 28-37 45-77 45C44 4 14-33 15-96c1-61 26-98 85-98zm52 81c6-60-76-77-97-28-3 7-6 17-6 28h103" id="at"/><path fill="#1071e5" d="M114-163C36-179 61-72 57 0H25l-1-190h30c1 12-1 29 2 39 6-27 23-49 58-41v29" id="au"/><g id="d"><use transform="matrix(0.07407407407407407,0,0,0.07407407407407407,0,0)" xlink:href="#aq"/><use transform="matrix(0.07407407407407407,0,0,0.07407407407407407,5.851851851851851,0)" xlink:href="#ar"/><use transform="matrix(0.07407407407407407,0,0,0.07407407407407407,20.666666666666664,0)" xlink:href="#as"/><use transform="matrix(0.07407407407407407,0,0,0.07407407407407407,34,0)" xlink:href="#at"/><use transform="matrix(0.07407407407407407,0,0,0.07407407407407407,48.81481481481481,0)" xlink:href="#au"/><use transform="matrix(0.07407407407407407,0,0,0.07407407407407407,57.629629629629626,0)" xlink:href="#ao"/></g><path fill="#1071e5" d="M210-169c-67 3-38 105-44 169h-31v-121c0-29-5-50-35-48C34-165 62-65 56 0H25l-1-190h30c1 10-1 24 2 32 10-44 99-50 107 0 11-21 27-35 58-36 85-2 47 119 55 194h-31v-121c0-29-5-49-35-48" id="av"/><g id="e"><use transform="matrix(0.07407407407407407,0,0,0.07407407407407407,0,0)" xlink:href="#ak"/><use transform="matrix(0.07407407407407407,0,0,0.07407407407407407,14.814814814814813,0)" xlink:href="#ar"/><use transform="matrix(0.07407407407407407,0,0,0.07407407407407407,29.629629629629626,0)" xlink:href="#av"/><use transform="matrix(0.07407407407407407,0,0,0.07407407407407407,51.77777777777777,0)" xlink:href="#at"/></g><path fill="#1071e5" d="M9 0v-24l116-142H16v-24h144v24L44-24h123V0H9" id="aw"/><g id="f"><use transform="matrix(0.07407407407407407,0,0,0.07407407407407407,0,0)" xlink:href="#ap"/><use transform="matrix(0.07407407407407407,0,0,0.07407407407407407,14.814814814814813,0)" xlink:href="#al"/><use transform="matrix(0.07407407407407407,0,0,0.07407407407407407,29.629629629629626,0)" xlink:href="#an"/><use transform="matrix(0.07407407407407407,0,0,0.07407407407407407,37.03703703703703,0)" xlink:href="#aj"/><use transform="matrix(0.07407407407407407,0,0,0.07407407407407407,42.888888888888886,0)" xlink:href="#av"/><use transform="matrix(0.07407407407407407,0,0,0.07407407407407407,65.03703703703704,0)" xlink:href="#aj"/><use transform="matrix(0.07407407407407407,0,0,0.07407407407407407,70.88888888888889,0)" xlink:href="#aw"/><use transform="matrix(0.07407407407407407,0,0,0.07407407407407407,84.22222222222221,0)" xlink:href="#at"/><use transform="matrix(0.07407407407407407,0,0,0.07407407407407407,99.03703703703704,0)" xlink:href="#au"/></g><g id="g"><use transform="matrix(0.07407407407407407,0,0,0.07407407407407407,0,0)" xlink:href="#aq"/><use transform="matrix(0.07407407407407407,0,0,0.07407407407407407,5.851851851851851,0)" xlink:href="#ap"/><use transform="matrix(0.07407407407407407,0,0,0.07407407407407407,20.666666666666664,0)" xlink:href="#ao"/><use transform="matrix(0.07407407407407407,0,0,0.07407407407407407,34,0)" xlink:href="#ao"/></g><path fill="#1071e5" d="M96-169c-40 0-48 33-48 73s9 75 48 75c24 0 41-14 43-38l32 2c-6 37-31 61-74 61-59 0-76-41-82-99-10-93 101-131 147-64 4 7 5 14 7 22l-32 3c-4-21-16-35-41-35" id="ax"/><g id="h"><use transform="matrix(0.07407407407407407,0,0,0.07407407407407407,0,0)" xlink:href="#av"/><use transform="matrix(0.07407407407407407,0,0,0.07407407407407407,22.148148148148145,0)" xlink:href="#at"/><use transform="matrix(0.07407407407407407,0,0,0.07407407407407407,36.96296296296296,0)" xlink:href="#an"/><use transform="matrix(0.07407407407407407,0,0,0.07407407407407407,44.37037037037037,0)" xlink:href="#au"/><use transform="matrix(0.07407407407407407,0,0,0.07407407407407407,53.18518518518518,0)" xlink:href="#aj"/><use transform="matrix(0.07407407407407407,0,0,0.07407407407407407,59.037037037037045,0)" xlink:href="#ax"/><use transform="matrix(0.07407407407407407,0,0,0.07407407407407407,72.37037037037037,0)" xlink:href="#ao"/></g><path fill="#e81313" d="M95-196l47-18 8 23-50 13 33 44-21 13-27-46-27 45-21-12 33-44-49-13 8-23 47 19-2-53h24" id="ay"/><path fill="#e81313" d="M50-231l6-30h32l-6 30H50zM6 0l37-190h31L37 0H6" id="az"/><path fill="#e81313" d="M67-158c22-48 132-52 116 29L158 0h-32l25-140c3-38-53-32-70-12C52-117 51-52 38 0H6l36-190h30" id="aA"/><path fill="#e81313" d="M67-158c15-20 31-36 64-36 94 0 33 127 27 194h-32l25-140c3-38-53-32-70-12C52-117 51-51 37 0H6l51-261h31" id="aB"/><path fill="#e81313" d="M111-194c62-3 86 47 72 106H45c-7 38 6 69 45 68 27-1 43-14 53-32l24 11C152-15 129 4 87 4 38 3 12-23 12-71c0-70 32-119 99-123zm44 81c14-66-71-72-95-28-4 8-8 17-11 28h106" id="aC"/><path fill="#e81313" d="M66-151c12-25 30-51 66-40l-6 26C45-176 58-65 38 0H6l36-190h30" id="aD"/><path fill="#e81313" d="M51-54c-9 22 5 41 31 30L79-1C43 14 10-4 19-52l22-115H19l5-23h22l19-43h21l-9 43h35l-4 23H73" id="aE"/><path fill="#e81313" d="M133-28C103 26-5 8 13-77c13-62 24-115 90-117 29-1 46 15 56 35l19-102h32L160 0h-30zM45-64c-2 27 10 43 35 43 54-1 69-50 69-103 0-29-15-46-42-46-53-1-58 58-62 106" id="aF"/><g id="i"><use transform="matrix(0.06172839506172839,0,0,0.06172839506172839,0,0)" xlink:href="#ay"/><use transform="matrix(0.06172839506172839,0,0,0.06172839506172839,8.641975308641975,0)" xlink:href="#ay"/><use transform="matrix(0.06172839506172839,0,0,0.06172839506172839,17.28395061728395,0)" xlink:href="#az"/><use transform="matrix(0.06172839506172839,0,0,0.06172839506172839,22.160493827160494,0)" xlink:href="#aA"/><use transform="matrix(0.06172839506172839,0,0,0.06172839506172839,34.50617283950617,0)" xlink:href="#aB"/><use transform="matrix(0.06172839506172839,0,0,0.06172839506172839,46.85185185185185,0)" xlink:href="#aC"/><use transform="matrix(0.06172839506172839,0,0,0.06172839506172839,59.197530864197525,0)" xlink:href="#aD"/><use transform="matrix(0.06172839506172839,0,0,0.06172839506172839,66.5432098765432,0)" xlink:href="#az"/><use transform="matrix(0.06172839506172839,0,0,0.06172839506172839,71.41975308641975,0)" xlink:href="#aE"/><use transform="matrix(0.06172839506172839,0,0,0.06172839506172839,77.59259259259258,0)" xlink:href="#aC"/><use transform="matrix(0.06172839506172839,0,0,0.06172839506172839,89.93827160493827,0)" xlink:href="#aF"/><use transform="matrix(0.06172839506172839,0,0,0.06172839506172839,102.28395061728395,0)" xlink:href="#ay"/><use transform="matrix(0.06172839506172839,0,0,0.06172839506172839,110.92592592592592,0)" xlink:href="#ay"/></g><path fill="#3a414a" d="M169-182c-1-43-94-46-97-3 18 66 151 10 154 114 3 95-165 93-204 36-6-8-10-19-12-30l50-8c3 46 112 56 116 5-17-69-150-10-154-114-4-87 153-88 188-35 5 8 8 18 10 28" id="aG"/><path fill="#3a414a" d="M84 4C32 4 15-41 15-95c0-55 18-99 73-99 29 0 47 12 58 34l2-30h48l-1 265h-49V-32C136-9 114 4 84 4zm21-34c32 0 41-29 41-66 0-36-9-64-40-64-33 0-39 30-40 65 0 43 13 65 39 65" id="aH"/><path fill="#3a414a" d="M85 4C-2 5 27-109 22-190h50c7 57-23 150 33 157 60-5 35-97 40-157h50l1 190h-47c-2-12 1-28-3-38-12 25-28 42-61 42" id="aI"/><path fill="#3a414a" d="M135-194c87-1 58 113 63 194h-50c-7-57 23-157-34-157-59 0-34 97-39 157H25l-1-190h47c2 12-1 28 3 38 12-26 28-41 61-42" id="aJ"/><path fill="#3a414a" d="M115-3C79 11 28 4 28-45v-112H4v-33h27l15-45h31v45h36v33H77v99c-1 23 16 31 38 25v30" id="aK"/><path fill="#3a414a" d="M25-224v-37h50v37H25zM25 0v-190h50V0H25" id="aL"/><path fill="#3a414a" d="M133-34C117-15 103 5 69 4 32 3 11-16 11-54c-1-60 55-63 116-61 1-26-3-47-28-47-18 1-26 9-28 27l-52-2c7-38 36-58 82-57s74 22 75 68l1 82c-1 14 12 18 25 15v27c-30 8-71 5-69-32zm-48 3c29 0 43-24 42-57-32 0-66-3-65 30 0 17 8 27 23 27" id="aM"/><g id="j"><use transform="matrix(0.09876543209876544,0,0,0.09876543209876544,0,0)" xlink:href="#aG"/><use transform="matrix(0.09876543209876544,0,0,0.09876543209876544,23.703703703703706,0)" xlink:href="#ah"/><use transform="matrix(0.09876543209876544,0,0,0.09876543209876544,43.4567901234568,0)" xlink:href="#aH"/><use transform="matrix(0.09876543209876544,0,0,0.09876543209876544,65.08641975308643,0)" xlink:href="#aI"/><use transform="matrix(0.09876543209876544,0,0,0.09876543209876544,86.71604938271606,0)" xlink:href="#ah"/><use transform="matrix(0.09876543209876544,0,0,0.09876543209876544,106.46913580246914,0)" xlink:href="#aJ"/><use transform="matrix(0.09876543209876544,0,0,0.09876543209876544,128.0987654320988,0)" xlink:href="#aK"/><use transform="matrix(0.09876543209876544,0,0,0.09876543209876544,139.85185185185188,0)" xlink:href="#aL"/><use transform="matrix(0.09876543209876544,0,0,0.09876543209876544,149.7283950617284,0)" xlink:href="#aM"/><use transform="matrix(0.09876543209876544,0,0,0.09876543209876544,169.4814814814815,0)" xlink:href="#ai"/></g><path fill="#1071e5" d="M80-196l47-18 7 23-49 13 32 44-20 13-27-46-27 45-21-12 33-44-49-13 8-23 47 19-2-53h23" id="aN"/><path fill="#1071e5" d="M50-231l6-30h32l-6 30H50zM6 0l37-190h31L37 0H6" id="aO"/><path fill="#1071e5" d="M67-158c22-48 132-52 116 29L158 0h-32l25-140c3-38-53-32-70-12C52-117 51-52 38 0H6l36-190h30" id="aP"/><path fill="#1071e5" d="M67-158c15-20 31-36 64-36 94 0 33 127 27 194h-32l25-140c3-38-53-32-70-12C52-117 51-51 37 0H6l51-261h31" id="aQ"/><path fill="#1071e5" d="M111-194c62-3 86 47 72 106H45c-7 38 6 69 45 68 27-1 43-14 53-32l24 11C152-15 129 4 87 4 38 3 12-23 12-71c0-70 32-119 99-123zm44 81c14-66-71-72-95-28-4 8-8 17-11 28h106" id="aR"/><path fill="#1071e5" d="M66-151c12-25 30-51 66-40l-6 26C45-176 58-65 38 0H6l36-190h30" id="aS"/><path fill="#1071e5" d="M51-54c-9 22 5 41 31 30L79-1C43 14 10-4 19-52l22-115H19l5-23h22l19-43h21l-9 43h35l-4 23H73" id="aT"/><path fill="#1071e5" d="M133-28C103 26-5 8 13-77c13-62 24-115 90-117 29-1 46 15 56 35l19-102h32L160 0h-30zM45-64c-2 27 10 43 35 43 54-1 69-50 69-103 0-29-15-46-42-46-53-1-58 58-62 106" id="aU"/><path fill="#1071e5" d="M95-196l47-18 8 23-50 13 33 44-21 13-27-46-27 45-21-12 33-44-49-13 8-23 47 19-2-53h24" id="aV"/><g id="k"><use transform="matrix(0.07407407407407407,0,0,0.07407407407407407,0,0)" xlink:href="#aN"/><use transform="matrix(0.07407407407407407,0,0,0.07407407407407407,10.37037037037037,0)" xlink:href="#aN"/><use transform="matrix(0.07407407407407407,0,0,0.07407407407407407,20.74074074074074,0)" xlink:href="#aO"/><use transform="matrix(0.07407407407407407,0,0,0.07407407407407407,26.59259259259259,0)" xlink:href="#aP"/><use transform="matrix(0.07407407407407407,0,0,0.07407407407407407,41.407407407407405,0)" xlink:href="#aQ"/><use transform="matrix(0.07407407407407407,0,0,0.07407407407407407,56.22222222222221,0)" xlink:href="#aR"/><use transform="matrix(0.07407407407407407,0,0,0.07407407407407407,71.03703703703702,0)" xlink:href="#aS"/><use transform="matrix(0.07407407407407407,0,0,0.07407407407407407,79.85185185185183,0)" xlink:href="#aO"/><use transform="matrix(0.07407407407407407,0,0,0.07407407407407407,85.70370370370368,0)" xlink:href="#aT"/><use transform="matrix(0.07407407407407407,0,0,0.07407407407407407,93.11111111111109,0)" xlink:href="#aR"/><use transform="matrix(0.07407407407407407,0,0,0.07407407407407407,107.92592592592591,0)" xlink:href="#aU"/><use transform="matrix(0.07407407407407407,0,0,0.07407407407407407,122.7407407407407,0)" xlink:href="#aV"/><use transform="matrix(0.07407407407407407,0,0,0.07407407407407407,133.1111111111111,0)" xlink:href="#aV"/></g><path fill="#e81313" d="M133-34C117-15 103 5 69 4 32 3 11-16 11-54c-1-60 55-63 116-61 1-26-3-47-28-47-18 1-26 9-28 27l-52-2c7-38 36-58 82-57s74 22 75 68l1 82c-1 14 12 18 25 15v27c-30 8-71 5-69-32zm-48 3c29 0 43-24 42-57-32 0-66-3-65 30 0 17 8 27 23 27" id="aW"/><path fill="#e81313" d="M88-194c31-1 46 15 58 34l-1-101h50l1 261h-48c-2-10 0-23-3-31C134-8 116 4 84 4 32 4 16-41 15-95c0-56 19-97 73-99zm17 164c33 0 40-30 41-66 1-37-9-64-41-64s-38 30-39 65c0 43 13 65 39 65" id="aX"/><path fill="#e81313" d="M87 75C49 33 22-17 22-94c0-76 28-126 65-167h31c-38 41-64 92-64 168S80 34 118 75H87" id="aY"/><path fill="#e81313" d="M24 0v-261h32V0H24" id="aZ"/><path fill="#e81313" d="M141-36C126-15 110 5 73 4 37 3 15-17 15-53c-1-64 63-63 125-63 3-35-9-54-41-54-24 1-41 7-42 31l-33-3c5-37 33-52 76-52 45 0 72 20 72 64v82c-1 20 7 32 28 27v20c-31 9-61-2-59-35zM48-53c0 20 12 33 32 33 41-3 63-29 60-74-43 2-92-5-92 41" id="ba"/><path fill="#e81313" d="M179-190L93 31C79 59 56 82 12 73V49c39 6 53-20 64-50L1-190h34L92-34l54-156h33" id="bb"/><path fill="#e81313" d="M100-194c63 0 86 42 84 106H49c0 40 14 67 53 68 26 1 43-12 49-29l28 8c-11 28-37 45-77 45C44 4 14-33 15-96c1-61 26-98 85-98zm52 81c6-60-76-77-97-28-3 7-6 17-6 28h103" id="bc"/><path fill="#e81313" d="M114-163C36-179 61-72 57 0H25l-1-190h30c1 12-1 29 2 39 6-27 23-49 58-41v29" id="bd"/><path fill="#e81313" d="M33-154v-36h34v36H33zM33 0v-36h34V0H33" id="be"/><g id="l"><use transform="matrix(0.07407407407407407,0,0,0.07407407407407407,0,0)" xlink:href="#aW"/><use transform="matrix(0.07407407407407407,0,0,0.07407407407407407,14.814814814814813,0)" xlink:href="#aX"/><use transform="matrix(0.07407407407407407,0,0,0.07407407407407407,31.037037037037035,0)" xlink:href="#aX"/><use transform="matrix(0.07407407407407407,0,0,0.07407407407407407,47.259259259259245,0)" xlink:href="#aY"/><use transform="matrix(0.07407407407407407,0,0,0.07407407407407407,56.07407407407407,0)" xlink:href="#aZ"/><use transform="matrix(0.07407407407407407,0,0,0.07407407407407407,61.925925925925924,0)" xlink:href="#ba"/><use transform="matrix(0.07407407407407407,0,0,0.07407407407407407,76.74074074074073,0)" xlink:href="#bb"/><use transform="matrix(0.07407407407407407,0,0,0.07407407407407407,90.07407407407408,0)" xlink:href="#bc"/><use transform="matrix(0.07407407407407407,0,0,0.07407407407407407,104.88888888888887,0)" xlink:href="#bd"/><use transform="matrix(0.07407407407407407,0,0,0.07407407407407407,113.70370370370368,0)" xlink:href="#be"/></g><path fill="#e81313" d="M30 0v-248h33v221h125V0H30" id="bf"/><path fill="#e81313" d="M33-261c38 41 65 92 65 168S71 34 33 75H2C39 34 66-17 66-93S39-220 2-261h31" id="bg"/><g id="m"><use transform="matrix(0.07407407407407407,0,0,0.07407407407407407,0,0)" xlink:href="#bf"/><use transform="matrix(0.07407407407407407,0,0,0.07407407407407407,14.814814814814813,0)" xlink:href="#ba"/><use transform="matrix(0.07407407407407407,0,0,0.07407407407407407,29.629629629629626,0)" xlink:href="#bb"/><use transform="matrix(0.07407407407407407,0,0,0.07407407407407407,42.96296296296296,0)" xlink:href="#bc"/><use transform="matrix(0.07407407407407407,0,0,0.07407407407407407,57.77777777777777,0)" xlink:href="#bd"/><use transform="matrix(0.07407407407407407,0,0,0.07407407407407407,66.59259259259258,0)" xlink:href="#bg"/></g><path fill="#e81313" d="M190-63c-7 42-38 67-86 67-59 0-84-38-90-98-12-110 154-137 174-36l-49 2c-2-19-15-32-35-32-30 0-35 28-38 64-6 74 65 87 74 30" id="bh"/><path fill="#e81313" d="M110-194c64 0 96 36 96 99 0 64-35 99-97 99-61 0-95-36-95-99 0-62 34-99 96-99zm-1 164c35 0 45-28 45-65 0-40-10-65-43-65-34 0-45 26-45 65 0 36 10 65 43 65" id="bi"/><path fill="#e81313" d="M220-157c-53 9-28 100-34 157h-49v-107c1-27-5-49-29-50C55-147 81-57 75 0H25l-1-190h47c2 12-1 28 3 38 10-53 101-56 108 0 13-22 24-43 59-42 82 1 51 116 57 194h-49v-107c-1-25-5-48-29-50" id="bj"/><path fill="#e81313" d="M135-194c53 0 70 44 70 98 0 56-19 98-73 100-31 1-45-17-59-34 3 33 2 69 2 105H25l-1-265h48c2 10 0 23 3 31 11-24 29-35 60-35zM114-30c33 0 39-31 40-66 0-38-9-64-40-64-56 0-55 130 0 130" id="bk"/><path fill="#e81313" d="M25-224v-37h50v37H25zM25 0v-190h50V0H25" id="bl"/><path fill="#e81313" d="M25 0v-261h50V0H25" id="bm"/><path fill="#e81313" d="M185-48c-13 30-37 53-82 52C43 2 14-33 14-96s30-98 90-98c62 0 83 45 84 108H66c0 31 8 55 39 56 18 0 30-7 34-22zm-45-69c5-46-57-63-70-21-2 6-4 13-4 21h74" id="bn"/><path fill="#e81313" d="M33 0v-38h34V0H33" id="bo"/><g id="n"><use transform="matrix(0.07407407407407407,0,0,0.07407407407407407,0,0)" xlink:href="#bh"/><use transform="matrix(0.07407407407407407,0,0,0.07407407407407407,14.814814814814813,0)" xlink:href="#bi"/><use transform="matrix(0.07407407407407407,0,0,0.07407407407407407,31.037037037037035,0)" xlink:href="#bj"/><use transform="matrix(0.07407407407407407,0,0,0.07407407407407407,54.740740740740726,0)" xlink:href="#bk"/><use transform="matrix(0.07407407407407407,0,0,0.07407407407407407,70.96296296296296,0)" xlink:href="#bl"/><use transform="matrix(0.07407407407407407,0,0,0.07407407407407407,78.37037037037037,0)" xlink:href="#bm"/><use transform="matrix(0.07407407407407407,0,0,0.07407407407407407,85.77777777777777,0)" xlink:href="#bn"/><use transform="matrix(0.07407407407407407,0,0,0.07407407407407407,100.59259259259258,0)" xlink:href="#aY"/><use transform="matrix(0.07407407407407407,0,0,0.07407407407407407,109.40740740740739,0)" xlink:href="#bo"/><use transform="matrix(0.07407407407407407,0,0,0.07407407407407407,116.8148148148148,0)" xlink:href="#bo"/><use transform="matrix(0.07407407407407407,0,0,0.07407407407407407,124.2222222222222,0)" xlink:href="#bo"/><use transform="matrix(0.07407407407407407,0,0,0.07407407407407407,131.62962962962962,0)" xlink:href="#bg"/></g><path fill="#e81313" d="M121-226c-27-7-43 5-38 36h38v33H83V0H34v-157H6v-33h28c-9-59 32-81 87-68v32" id="bp"/><path fill="#e81313" d="M115-3C79 11 28 4 28-45v-112H4v-33h27l15-45h31v45h36v33H77v99c-1 23 16 31 38 25v30" id="bq"/><g id="o"><use transform="matrix(0.07407407407407407,0,0,0.07407407407407407,0,0)" xlink:href="#bp"/><use transform="matrix(0.07407407407407407,0,0,0.07407407407407407,8.814814814814815,0)" xlink:href="#bl"/><use transform="matrix(0.07407407407407407,0,0,0.07407407407407407,16.22222222222222,0)" xlink:href="#bq"/><use transform="matrix(0.07407407407407407,0,0,0.07407407407407407,25.037037037037038,0)" xlink:href="#aY"/><use transform="matrix(0.07407407407407407,0,0,0.07407407407407407,33.851851851851855,0)" xlink:href="#bo"/><use transform="matrix(0.07407407407407407,0,0,0.07407407407407407,41.25925925925926,0)" xlink:href="#bo"/><use transform="matrix(0.07407407407407407,0,0,0.07407407407407407,48.666666666666664,0)" xlink:href="#bo"/><use transform="matrix(0.07407407407407407,0,0,0.07407407407407407,56.07407407407407,0)" xlink:href="#bg"/></g><path fill="#e81313" d="M128 0H69L1-190h53L99-40l48-150h52" id="br"/><path fill="#e81313" d="M85 4C-2 5 27-109 22-190h50c7 57-23 150 33 157 60-5 35-97 40-157h50l1 190h-47c-2-12 1-28-3-38-12 25-28 42-61 42" id="bs"/><g id="p"><use transform="matrix(0.07407407407407407,0,0,0.07407407407407407,0,0)" xlink:href="#bn"/><use transform="matrix(0.07407407407407407,0,0,0.07407407407407407,14.814814814814813,0)" xlink:href="#br"/><use transform="matrix(0.07407407407407407,0,0,0.07407407407407407,29.629629629629626,0)" xlink:href="#aW"/><use transform="matrix(0.07407407407407407,0,0,0.07407407407407407,44.44444444444444,0)" xlink:href="#bm"/><use transform="matrix(0.07407407407407407,0,0,0.07407407407407407,51.85185185185185,0)" xlink:href="#bs"/><use transform="matrix(0.07407407407407407,0,0,0.07407407407407407,68.07407407407408,0)" xlink:href="#aW"/><use transform="matrix(0.07407407407407407,0,0,0.07407407407407407,82.88888888888889,0)" xlink:href="#bq"/><use transform="matrix(0.07407407407407407,0,0,0.07407407407407407,91.7037037037037,0)" xlink:href="#bn"/><use transform="matrix(0.07407407407407407,0,0,0.07407407407407407,106.51851851851852,0)" xlink:href="#aY"/><use transform="matrix(0.07407407407407407,0,0,0.07407407407407407,115.33333333333331,0)" xlink:href="#bo"/><use transform="matrix(0.07407407407407407,0,0,0.07407407407407407,122.74074074074072,0)" xlink:href="#bo"/><use transform="matrix(0.07407407407407407,0,0,0.07407407407407407,130.14814814814812,0)" xlink:href="#bo"/><use transform="matrix(0.07407407407407407,0,0,0.07407407407407407,137.55555555555554,0)" xlink:href="#bg"/></g><path fill="#e81313" d="M135-150c-39-12-60 13-60 57V0H25l-1-190h47c2 13-1 29 3 40 6-28 27-53 61-41v41" id="bt"/><g id="q"><use transform="matrix(0.07407407407407407,0,0,0.07407407407407407,0,0)" xlink:href="#bk"/><use transform="matrix(0.07407407407407407,0,0,0.07407407407407407,16.22222222222222,0)" xlink:href="#bt"/><use transform="matrix(0.07407407407407407,0,0,0.07407407407407407,26.59259259259259,0)" xlink:href="#bn"/><use transform="matrix(0.07407407407407407,0,0,0.07407407407407407,41.407407407407405,0)" xlink:href="#aX"/><use transform="matrix(0.07407407407407407,0,0,0.07407407407407407,57.629629629629626,0)" xlink:href="#bl"/><use transform="matrix(0.07407407407407407,0,0,0.07407407407407407,65.03703703703704,0)" xlink:href="#bh"/><use transform="matrix(0.07407407407407407,0,0,0.07407407407407407,79.85185185185185,0)" xlink:href="#bq"/><use transform="matrix(0.07407407407407407,0,0,0.07407407407407407,88.66666666666666,0)" xlink:href="#aY"/><use transform="matrix(0.07407407407407407,0,0,0.07407407407407407,97.48148148148145,0)" xlink:href="#bo"/><use transform="matrix(0.07407407407407407,0,0,0.07407407407407407,104.88888888888887,0)" xlink:href="#bo"/><use transform="matrix(0.07407407407407407,0,0,0.07407407407407407,112.29629629629628,0)" xlink:href="#bo"/><use transform="matrix(0.07407407407407407,0,0,0.07407407407407407,119.70370370370368,0)" xlink:href="#bg"/></g><path fill="#e81313" d="M137-138c1-29-70-34-71-4 15 46 118 7 119 86 1 83-164 76-172 9l43-7c4 19 20 25 44 25 33 8 57-30 24-41C81-84 22-81 20-136c-2-80 154-74 161-7" id="bu"/><path fill="#e81313" d="M123 10C108 53 80 86 19 72V37c35 8 53-11 59-39L3-190h52l48 148c12-52 28-100 44-148h51" id="bv"/><g id="r"><use transform="matrix(0.07407407407407407,0,0,0.07407407407407407,0,0)" xlink:href="#bu"/><use transform="matrix(0.07407407407407407,0,0,0.07407407407407407,14.814814814814813,0)" xlink:href="#bs"/><use transform="matrix(0.07407407407407407,0,0,0.07407407407407407,31.037037037037035,0)" xlink:href="#bj"/><use transform="matrix(0.07407407407407407,0,0,0.07407407407407407,54.740740740740726,0)" xlink:href="#bj"/><use transform="matrix(0.07407407407407407,0,0,0.07407407407407407,78.44444444444443,0)" xlink:href="#aW"/><use transform="matrix(0.07407407407407407,0,0,0.07407407407407407,93.25925925925924,0)" xlink:href="#bt"/><use transform="matrix(0.07407407407407407,0,0,0.07407407407407407,103.6296296296296,0)" xlink:href="#bv"/><use transform="matrix(0.07407407407407407,0,0,0.07407407407407407,118.44444444444441,0)" xlink:href="#aY"/><use transform="matrix(0.07407407407407407,0,0,0.07407407407407407,127.25925925925922,0)" xlink:href="#bg"/></g><path fill="#3a414a" d="M24 0v-248h52v208h133V0H24" id="bw"/><path fill="#3a414a" d="M123 10C108 53 80 86 19 72V37c35 8 53-11 59-39L3-190h52l48 148c12-52 28-100 44-148h51" id="bx"/><path fill="#3a414a" d="M135-150c-39-12-60 13-60 57V0H25l-1-190h47c2 13-1 29 3 40 6-28 27-53 61-41v41" id="by"/><g id="s"><use transform="matrix(0.09876543209876544,0,0,0.09876543209876544,0,0)" xlink:href="#bw"/><use transform="matrix(0.09876543209876544,0,0,0.09876543209876544,21.62962962962963,0)" xlink:href="#aM"/><use transform="matrix(0.09876543209876544,0,0,0.09876543209876544,41.38271604938272,0)" xlink:href="#bx"/><use transform="matrix(0.09876543209876544,0,0,0.09876543209876544,61.13580246913581,0)" xlink:href="#ah"/><use transform="matrix(0.09876543209876544,0,0,0.09876543209876544,80.8888888888889,0)" xlink:href="#by"/></g><g id="t"><use transform="matrix(0.07407407407407407,0,0,0.07407407407407407,0,0)" xlink:href="#ak"/><use transform="matrix(0.07407407407407407,0,0,0.07407407407407407,14.814814814814813,0)" xlink:href="#ar"/><use transform="matrix(0.07407407407407407,0,0,0.07407407407407407,29.629629629629626,0)" xlink:href="#av"/><use transform="matrix(0.07407407407407407,0,0,0.07407407407407407,51.77777777777777,0)" xlink:href="#at"/></g><path fill="#1071e5" d="M85-194c31 0 48 13 60 33l-1-100h32l1 261h-30c-2-10 0-23-3-31C134-8 116 4 85 4 32 4 16-35 15-94c0-66 23-100 70-100zm9 24c-40 0-46 34-46 75 0 40 6 74 45 74 42 0 51-32 51-76 0-42-9-74-50-73" id="bz"/><g id="u"><use transform="matrix(0.07407407407407407,0,0,0.07407407407407407,0,0)" xlink:href="#bz"/><use transform="matrix(0.07407407407407407,0,0,0.07407407407407407,14.814814814814813,0)" xlink:href="#an"/><use transform="matrix(0.07407407407407407,0,0,0.07407407407407407,22.22222222222222,0)" xlink:href="#as"/><use transform="matrix(0.07407407407407407,0,0,0.07407407407407407,35.55555555555556,0)" xlink:href="#al"/><use transform="matrix(0.07407407407407407,0,0,0.07407407407407407,50.37037037037037,0)" xlink:href="#at"/></g><path fill="#1071e5" d="M115-194c53 0 69 39 70 98 0 66-23 100-70 100C84 3 66-7 56-30L54 0H23l1-261h32v101c10-23 28-34 59-34zm-8 174c40 0 45-34 45-75 0-40-5-75-45-74-42 0-51 32-51 76 0 43 10 73 51 73" id="bA"/><g id="v"><use transform="matrix(0.07407407407407407,0,0,0.07407407407407407,0,0)" xlink:href="#an"/><use transform="matrix(0.07407407407407407,0,0,0.07407407407407407,7.4074074074074066,0)" xlink:href="#au"/><use transform="matrix(0.07407407407407407,0,0,0.07407407407407407,16.22222222222222,0)" xlink:href="#ar"/><use transform="matrix(0.07407407407407407,0,0,0.07407407407407407,31.037037037037035,0)" xlink:href="#aj"/><use transform="matrix(0.07407407407407407,0,0,0.07407407407407407,36.888888888888886,0)" xlink:href="#ak"/><use transform="matrix(0.07407407407407407,0,0,0.07407407407407407,51.703703703703695,0)" xlink:href="#ar"/><use transform="matrix(0.07407407407407407,0,0,0.07407407407407407,66.5185185185185,0)" xlink:href="#bA"/><use transform="matrix(0.07407407407407407,0,0,0.07407407407407407,81.33333333333331,0)" xlink:href="#aq"/><use transform="matrix(0.07407407407407407,0,0,0.07407407407407407,87.18518518518516,0)" xlink:href="#at"/></g><g id="w"><use transform="matrix(0.07407407407407407,0,0,0.07407407407407407,0,0)" xlink:href="#aj"/><use transform="matrix(0.07407407407407407,0,0,0.07407407407407407,5.851851851851851,0)" xlink:href="#ak"/><use transform="matrix(0.07407407407407407,0,0,0.07407407407407407,20.666666666666664,0)" xlink:href="#al"/><use transform="matrix(0.07407407407407407,0,0,0.07407407407407407,35.48148148148148,0)" xlink:href="#am"/><use transform="matrix(0.07407407407407407,0,0,0.07407407407407407,50.29629629629629,0)" xlink:href="#an"/></g><g id="x"><use transform="matrix(0.07407407407407407,0,0,0.07407407407407407,0,0)" xlink:href="#ap"/><use transform="matrix(0.07407407407407407,0,0,0.07407407407407407,14.814814814814813,0)" xlink:href="#am"/><use transform="matrix(0.07407407407407407,0,0,0.07407407407407407,29.629629629629626,0)" xlink:href="#an"/><use transform="matrix(0.07407407407407407,0,0,0.07407407407407407,37.03703703703703,0)" xlink:href="#al"/><use transform="matrix(0.07407407407407407,0,0,0.07407407407407407,51.85185185185185,0)" xlink:href="#am"/><use transform="matrix(0.07407407407407407,0,0,0.07407407407407407,66.66666666666666,0)" xlink:href="#an"/></g><path fill="#1071e5" d="M-5 72V49h209v23H-5" id="bB"/><path fill="#1071e5" d="M106-169C34-169 62-67 57 0H25v-261h32l-1 103c12-21 28-36 61-36 89 0 53 116 60 194h-32v-121c2-32-8-49-39-48" id="bC"/><g id="y"><use transform="matrix(0.07407407407407407,0,0,0.07407407407407407,0,0)" xlink:href="#ap"/><use transform="matrix(0.07407407407407407,0,0,0.07407407407407407,14.814814814814813,0)" xlink:href="#am"/><use transform="matrix(0.07407407407407407,0,0,0.07407407407407407,29.629629629629626,0)" xlink:href="#an"/><use transform="matrix(0.07407407407407407,0,0,0.07407407407407407,37.03703703703703,0)" xlink:href="#al"/><use transform="matrix(0.07407407407407407,0,0,0.07407407407407407,51.85185185185185,0)" xlink:href="#am"/><use transform="matrix(0.07407407407407407,0,0,0.07407407407407407,66.66666666666666,0)" xlink:href="#an"/><use transform="matrix(0.07407407407407407,0,0,0.07407407407407407,74.07407407407406,0)" xlink:href="#bB"/><use transform="matrix(0.07407407407407407,0,0,0.07407407407407407,88.88888888888887,0)" xlink:href="#ao"/><use transform="matrix(0.07407407407407407,0,0,0.07407407407407407,102.2222222222222,0)" xlink:href="#bC"/><use transform="matrix(0.07407407407407407,0,0,0.07407407407407407,117.03703703703701,0)" xlink:href="#ar"/><use transform="matrix(0.07407407407407407,0,0,0.07407407407407407,131.85185185185182,0)" xlink:href="#al"/><use transform="matrix(0.07407407407407407,0,0,0.07407407407407407,146.66666666666663,0)" xlink:href="#at"/></g><path fill="#1071e5" d="M206 0h-36l-40-164L89 0H53L-1-190h32L70-26l43-164h34l41 164 42-164h31" id="bD"/><path fill="#1071e5" d="M177-190C167-65 218 103 67 71c-23-6-38-20-44-43l32-5c15 47 100 32 89-28v-30C133-14 115 1 83 1 29 1 15-40 15-95c0-56 16-97 71-98 29-1 48 16 59 35 1-10 0-23 2-32h30zM94-22c36 0 50-32 50-73 0-42-14-75-50-75-39 0-46 34-46 75s6 73 46 73" id="bE"/><g id="z"><use transform="matrix(0.07407407407407407,0,0,0.07407407407407407,0,0)" xlink:href="#bD"/><use transform="matrix(0.07407407407407407,0,0,0.07407407407407407,19.185185185185183,0)" xlink:href="#at"/><use transform="matrix(0.07407407407407407,0,0,0.07407407407407407,34,0)" xlink:href="#aj"/><use transform="matrix(0.07407407407407407,0,0,0.07407407407407407,39.85185185185185,0)" xlink:href="#bE"/><use transform="matrix(0.07407407407407407,0,0,0.07407407407407407,54.66666666666666,0)" xlink:href="#bC"/><use transform="matrix(0.07407407407407407,0,0,0.07407407407407407,69.48148148148147,0)" xlink:href="#an"/><use transform="matrix(0.07407407407407407,0,0,0.07407407407407407,76.88888888888887,0)" xlink:href="#ao"/></g><g id="A"><use transform="matrix(0.07407407407407407,0,0,0.07407407407407407,0,0)" xlink:href="#an"/><use transform="matrix(0.07407407407407407,0,0,0.07407407407407407,7.4074074074074066,0)" xlink:href="#au"/><use transform="matrix(0.07407407407407407,0,0,0.07407407407407407,16.22222222222222,0)" xlink:href="#ar"/><use transform="matrix(0.07407407407407407,0,0,0.07407407407407407,31.037037037037035,0)" xlink:href="#aj"/><use transform="matrix(0.07407407407407407,0,0,0.07407407407407407,36.888888888888886,0)" xlink:href="#ak"/><use transform="matrix(0.07407407407407407,0,0,0.07407407407407407,51.703703703703695,0)" xlink:href="#ar"/><use transform="matrix(0.07407407407407407,0,0,0.07407407407407407,66.5185185185185,0)" xlink:href="#bA"/><use transform="matrix(0.07407407407407407,0,0,0.07407407407407407,81.33333333333331,0)" xlink:href="#aq"/><use transform="matrix(0.07407407407407407,0,0,0.07407407407407407,87.18518518518516,0)" xlink:href="#at"/><use transform="matrix(0.07407407407407407,0,0,0.07407407407407407,101.99999999999997,0)" xlink:href="#bB"/><use transform="matrix(0.07407407407407407,0,0,0.07407407407407407,116.81481481481478,0)" xlink:href="#bD"/><use transform="matrix(0.07407407407407407,0,0,0.07407407407407407,135.99999999999997,0)" xlink:href="#at"/><use transform="matrix(0.07407407407407407,0,0,0.07407407407407407,150.81481481481478,0)" xlink:href="#aj"/><use transform="matrix(0.07407407407407407,0,0,0.07407407407407407,156.66666666666663,0)" xlink:href="#bE"/><use transform="matrix(0.07407407407407407,0,0,0.07407407407407407,171.48148148148144,0)" xlink:href="#bC"/><use transform="matrix(0.07407407407407407,0,0,0.07407407407407407,186.29629629629625,0)" xlink:href="#an"/><use transform="matrix(0.07407407407407407,0,0,0.07407407407407407,193.70370370370367,0)" xlink:href="#ao"/></g><g id="B"><use transform="matrix(0.07407407407407407,0,0,0.07407407407407407,0,0)" xlink:href="#ak"/><use transform="matrix(0.07407407407407407,0,0,0.07407407407407407,14.814814814814813,0)" xlink:href="#ap"/><use transform="matrix(0.07407407407407407,0,0,0.07407407407407407,29.629629629629626,0)" xlink:href="#ak"/><use transform="matrix(0.07407407407407407,0,0,0.07407407407407407,44.44444444444444,0)" xlink:href="#bB"/><use transform="matrix(0.07407407407407407,0,0,0.07407407407407407,59.25925925925925,0)" xlink:href="#an"/><use transform="matrix(0.07407407407407407,0,0,0.07407407407407407,66.66666666666666,0)" xlink:href="#au"/><use transform="matrix(0.07407407407407407,0,0,0.07407407407407407,75.48148148148147,0)" xlink:href="#ar"/><use transform="matrix(0.07407407407407407,0,0,0.07407407407407407,90.29629629629628,0)" xlink:href="#aj"/><use transform="matrix(0.07407407407407407,0,0,0.07407407407407407,96.14814814814812,0)" xlink:href="#ak"/><use transform="matrix(0.07407407407407407,0,0,0.07407407407407407,110.96296296296293,0)" xlink:href="#ar"/><use transform="matrix(0.07407407407407407,0,0,0.07407407407407407,125.77777777777774,0)" xlink:href="#bA"/><use transform="matrix(0.07407407407407407,0,0,0.07407407407407407,140.59259259259255,0)" xlink:href="#aq"/><use transform="matrix(0.07407407407407407,0,0,0.07407407407407407,146.4444444444444,0)" xlink:href="#at"/><use transform="matrix(0.07407407407407407,0,0,0.07407407407407407,161.2592592592592,0)" xlink:href="#bB"/><use transform="matrix(0.07407407407407407,0,0,0.07407407407407407,176.07407407407402,0)" xlink:href="#bD"/><use transform="matrix(0.07407407407407407,0,0,0.07407407407407407,195.2592592592592,0)" xlink:href="#at"/><use transform="matrix(0.07407407407407407,0,0,0.07407407407407407,210.07407407407402,0)" xlink:href="#aj"/><use transform="matrix(0.07407407407407407,0,0,0.07407407407407407,215.92592592592587,0)" xlink:href="#bE"/><use transform="matrix(0.07407407407407407,0,0,0.07407407407407407,230.74074074074065,0)" xlink:href="#bC"/><use transform="matrix(0.07407407407407407,0,0,0.07407407407407407,245.5555555555555,0)" xlink:href="#an"/><use transform="matrix(0.07407407407407407,0,0,0.07407407407407407,252.9629629629629,0)" xlink:href="#ao"/></g><path fill="#e81313" d="M24-231v-30h32v30H24zM24 0v-190h32V0H24" id="bF"/><path fill="#e81313" d="M117-194c89-4 53 116 60 194h-32v-121c0-31-8-49-39-48C34-167 62-67 57 0H25l-1-190h30c1 10-1 24 2 32 11-22 29-35 61-36" id="bG"/><path fill="#e81313" d="M115-194c55 1 70 41 70 98S169 2 115 4C84 4 66-9 55-30l1 105H24l-1-265h31l2 30c10-21 28-34 59-34zm-8 174c40 0 45-34 45-75s-6-73-45-74c-42 0-51 32-51 76 0 43 10 73 51 73" id="bH"/><path fill="#e81313" d="M84 4C-5 8 30-112 23-190h32v120c0 31 7 50 39 49 72-2 45-101 50-169h31l1 190h-30c-1-10 1-25-2-33-11 22-28 36-60 37" id="bI"/><path fill="#e81313" d="M59-47c-2 24 18 29 38 22v24C64 9 27 4 27-40v-127H5v-23h24l9-43h21v43h35v23H59v120" id="bJ"/><path fill="#e81313" d="M135-143c-3-34-86-38-87 0 15 53 115 12 119 90S17 21 10-45l28-5c4 36 97 45 98 0-10-56-113-15-118-90-4-57 82-63 122-42 12 7 21 19 24 35" id="bK"/><path fill="#e81313" d="M68-38c1 34 0 65-14 84H32c9-13 17-26 17-46H33v-38h35" id="bL"/><g id="C"><use transform="matrix(0.07407407407407407,0,0,0.07407407407407407,0,0)" xlink:href="#bh"/><use transform="matrix(0.07407407407407407,0,0,0.07407407407407407,14.814814814814813,0)" xlink:href="#aW"/><use transform="matrix(0.07407407407407407,0,0,0.07407407407407407,29.629629629629626,0)" xlink:href="#bm"/><use transform="matrix(0.07407407407407407,0,0,0.07407407407407407,37.03703703703703,0)" xlink:href="#bm"/><use transform="matrix(0.07407407407407407,0,0,0.07407407407407407,44.444444444444436,0)" xlink:href="#aY"/><use transform="matrix(0.07407407407407407,0,0,0.07407407407407407,53.25925925925926,0)" xlink:href="#bF"/><use transform="matrix(0.07407407407407407,0,0,0.07407407407407407,59.1111111111111,0)" xlink:href="#bG"/><use transform="matrix(0.07407407407407407,0,0,0.07407407407407407,73.92592592592591,0)" xlink:href="#bH"/><use transform="matrix(0.07407407407407407,0,0,0.07407407407407407,88.74074074074072,0)" xlink:href="#bI"/><use transform="matrix(0.07407407407407407,0,0,0.07407407407407407,103.55555555555553,0)" xlink:href="#bJ"/><use transform="matrix(0.07407407407407407,0,0,0.07407407407407407,110.96296296296293,0)" xlink:href="#bK"/><use transform="matrix(0.07407407407407407,0,0,0.07407407407407407,124.29629629629626,0)" xlink:href="#bL"/></g><path fill="#e81313" d="M80-196l47-18 7 23-49 13 32 44-20 13-27-46-27 45-21-12 33-44-49-13 8-23 47 19-2-53h23" id="bM"/><path fill="#e81313" d="M143 0L79-87 56-68V0H24v-261h32v163l83-92h37l-77 82L181 0h-38" id="bN"/><path fill="#e81313" d="M206 0h-36l-40-164L89 0H53L-1-190h32L70-26l43-164h34l41 164 42-164h31" id="bO"/><path fill="#e81313" d="M177-190C167-65 218 103 67 71c-23-6-38-20-44-43l32-5c15 47 100 32 89-28v-30C133-14 115 1 83 1 29 1 15-40 15-95c0-56 16-97 71-98 29-1 48 16 59 35 1-10 0-23 2-32h30zM94-22c36 0 50-32 50-73 0-42-14-75-50-75-39 0-46 34-46 75s6 73 46 73" id="bP"/><g id="D"><use transform="matrix(0.07407407407407407,0,0,0.07407407407407407,0,0)" xlink:href="#bM"/><use transform="matrix(0.07407407407407407,0,0,0.07407407407407407,10.37037037037037,0)" xlink:href="#bM"/><use transform="matrix(0.07407407407407407,0,0,0.07407407407407407,20.74074074074074,0)" xlink:href="#bN"/><use transform="matrix(0.07407407407407407,0,0,0.07407407407407407,34.074074074074076,0)" xlink:href="#bO"/><use transform="matrix(0.07407407407407407,0,0,0.07407407407407407,53.25925925925926,0)" xlink:href="#ba"/><use transform="matrix(0.07407407407407407,0,0,0.07407407407407407,68.07407407407408,0)" xlink:href="#bd"/><use transform="matrix(0.07407407407407407,0,0,0.07407407407407407,76.88888888888889,0)" xlink:href="#bP"/><use transform="matrix(0.07407407407407407,0,0,0.07407407407407407,91.7037037037037,0)" xlink:href="#bK"/><use transform="matrix(0.07407407407407407,0,0,0.07407407407407407,105.03703703703704,0)" xlink:href="#bg"/></g><path fill="#e81313" d="M135-194c52 0 70 43 70 98 0 56-19 99-73 100-30 1-46-15-58-35L72 0H24l1-261h50v104c11-23 29-37 60-37zM114-30c31 0 40-27 40-66 0-37-7-63-39-63s-41 28-41 65c0 36 8 64 40 64" id="bQ"/><path fill="#e81313" d="M-5 72V49h209v23H-5" id="bR"/><path fill="#e81313" d="M106-169C34-169 62-67 57 0H25v-261h32l-1 103c12-21 28-36 61-36 89 0 53 116 60 194h-32v-121c2-32-8-49-39-48" id="bS"/><g id="E"><use transform="matrix(0.07407407407407407,0,0,0.07407407407407407,0,0)" xlink:href="#bQ"/><use transform="matrix(0.07407407407407407,0,0,0.07407407407407407,16.22222222222222,0)" xlink:href="#bs"/><use transform="matrix(0.07407407407407407,0,0,0.07407407407407407,32.44444444444444,0)" xlink:href="#bl"/><use transform="matrix(0.07407407407407407,0,0,0.07407407407407407,39.85185185185185,0)" xlink:href="#bm"/><use transform="matrix(0.07407407407407407,0,0,0.07407407407407407,47.259259259259245,0)" xlink:href="#aX"/><use transform="matrix(0.07407407407407407,0,0,0.07407407407407407,63.48148148148148,0)" xlink:href="#aY"/><use transform="matrix(0.07407407407407407,0,0,0.07407407407407407,72.29629629629629,0)" xlink:href="#bF"/><use transform="matrix(0.07407407407407407,0,0,0.07407407407407407,78.14814814814814,0)" xlink:href="#bG"/><use transform="matrix(0.07407407407407407,0,0,0.07407407407407407,92.96296296296295,0)" xlink:href="#bH"/><use transform="matrix(0.07407407407407407,0,0,0.07407407407407407,107.77777777777776,0)" xlink:href="#bI"/><use transform="matrix(0.07407407407407407,0,0,0.07407407407407407,122.59259259259257,0)" xlink:href="#bJ"/><use transform="matrix(0.07407407407407407,0,0,0.07407407407407407,129.99999999999997,0)" xlink:href="#bR"/><use transform="matrix(0.07407407407407407,0,0,0.07407407407407407,144.81481481481478,0)" xlink:href="#bK"/><use transform="matrix(0.07407407407407407,0,0,0.07407407407407407,158.14814814814815,0)" xlink:href="#bS"/><use transform="matrix(0.07407407407407407,0,0,0.07407407407407407,172.96296296296293,0)" xlink:href="#ba"/><use transform="matrix(0.07407407407407407,0,0,0.07407407407407407,187.77777777777774,0)" xlink:href="#bH"/><use transform="matrix(0.07407407407407407,0,0,0.07407407407407407,202.59259259259255,0)" xlink:href="#bc"/><use transform="matrix(0.07407407407407407,0,0,0.07407407407407407,217.40740740740736,0)" xlink:href="#bg"/></g><path fill="#e81313" d="M-4 44V30h207v14H-4" id="bT"/><path fill="#e81313" d="M231 0h-52l-39-155L100 0H48L-1-190h46L77-45c9-52 24-97 36-145h53l37 145 32-145h46" id="bU"/><path fill="#e81313" d="M195-6C206 82 75 100 31 46c-4-6-6-13-8-21l49-6c3 16 16 24 34 25 40 0 42-37 40-79-11 22-30 35-61 35-53 0-70-43-70-97 0-56 18-96 73-97 30 0 46 14 59 34l2-30h47zm-90-29c32 0 41-27 41-63 0-35-9-62-40-62-32 0-39 29-40 63 0 36 9 62 39 62" id="bV"/><path fill="#e81313" d="M114-157C55-157 80-60 75 0H25v-261h50l-1 109c12-26 28-41 61-42 86-1 58 113 63 194h-50c-7-57 23-157-34-157" id="bW"/><g id="F"><use transform="matrix(0.07407407407407407,0,0,0.07407407407407407,0,0)" xlink:href="#aW"/><use transform="matrix(0.07407407407407407,0,0,0.07407407407407407,14.814814814814813,0)" xlink:href="#aX"/><use transform="matrix(0.07407407407407407,0,0,0.07407407407407407,31.037037037037035,0)" xlink:href="#aX"/><use transform="matrix(0.07407407407407407,0,0,0.07407407407407407,47.259259259259245,0)" xlink:href="#bT"/><use transform="matrix(0.07407407407407407,0,0,0.07407407407407407,62.07407407407406,0)" xlink:href="#bU"/><use transform="matrix(0.07407407407407407,0,0,0.07407407407407407,82.81481481481481,0)" xlink:href="#bn"/><use transform="matrix(0.07407407407407407,0,0,0.07407407407407407,97.62962962962962,0)" xlink:href="#bl"/><use transform="matrix(0.07407407407407407,0,0,0.07407407407407407,105.03703703703704,0)" xlink:href="#bV"/><use transform="matrix(0.07407407407407407,0,0,0.07407407407407407,121.25925925925924,0)" xlink:href="#bW"/><use transform="matrix(0.07407407407407407,0,0,0.07407407407407407,137.48148148148147,0)" xlink:href="#bq"/><use transform="matrix(0.07407407407407407,0,0,0.07407407407407407,146.29629629629628,0)" xlink:href="#aY"/><use transform="matrix(0.07407407407407407,0,0,0.07407407407407407,155.11111111111111,0)" xlink:href="#bM"/><use transform="matrix(0.07407407407407407,0,0,0.07407407407407407,165.48148148148147,0)" xlink:href="#bM"/><use transform="matrix(0.07407407407407407,0,0,0.07407407407407407,175.85185185185185,0)" xlink:href="#bN"/><use transform="matrix(0.07407407407407407,0,0,0.07407407407407407,189.18518518518516,0)" xlink:href="#bO"/><use transform="matrix(0.07407407407407407,0,0,0.07407407407407407,208.37037037037038,0)" xlink:href="#ba"/><use transform="matrix(0.07407407407407407,0,0,0.07407407407407407,223.18518518518522,0)" xlink:href="#bd"/><use transform="matrix(0.07407407407407407,0,0,0.07407407407407407,232,0)" xlink:href="#bP"/><use transform="matrix(0.07407407407407407,0,0,0.07407407407407407,246.8148148148148,0)" xlink:href="#bK"/><use transform="matrix(0.07407407407407407,0,0,0.07407407407407407,260.14814814814815,0)" xlink:href="#bg"/></g><path fill="#3a414a" d="M24-248c120-7 223 5 221 122C244-46 201 0 124 0H24v-248zM76-40c74 7 117-18 117-86 0-67-45-88-117-82v168" id="bX"/><path fill="#3a414a" d="M137-138c1-29-70-34-71-4 15 46 118 7 119 86 1 83-164 76-172 9l43-7c4 19 20 25 44 25 33 8 57-30 24-41C81-84 22-81 20-136c-2-80 154-74 161-7" id="bY"/><g id="G"><use transform="matrix(0.09876543209876544,0,0,0.09876543209876544,0,0)" xlink:href="#bX"/><use transform="matrix(0.09876543209876544,0,0,0.09876543209876544,25.58024691358025,0)" xlink:href="#ah"/><use transform="matrix(0.09876543209876544,0,0,0.09876543209876544,45.33333333333334,0)" xlink:href="#aJ"/><use transform="matrix(0.09876543209876544,0,0,0.09876543209876544,66.96296296296298,0)" xlink:href="#bY"/><use transform="matrix(0.09876543209876544,0,0,0.09876543209876544,86.71604938271606,0)" xlink:href="#ah"/></g><g id="H"><use transform="matrix(0.07407407407407407,0,0,0.07407407407407407,0,0)" xlink:href="#am"/><use transform="matrix(0.07407407407407407,0,0,0.07407407407407407,14.814814814814813,0)" xlink:href="#ak"/><use transform="matrix(0.07407407407407407,0,0,0.07407407407407407,29.629629629629626,0)" xlink:href="#aj"/><use transform="matrix(0.07407407407407407,0,0,0.07407407407407407,35.48148148148148,0)" xlink:href="#an"/><use transform="matrix(0.07407407407407407,0,0,0.07407407407407407,42.888888888888886,0)" xlink:href="#ao"/></g><path fill="#1071e5" d="M108 0H70L1-190h34L89-25l56-165h34" id="bZ"/><g id="I"><use transform="matrix(0.07407407407407407,0,0,0.07407407407407407,0,0)" xlink:href="#ar"/><use transform="matrix(0.07407407407407407,0,0,0.07407407407407407,14.814814814814813,0)" xlink:href="#ax"/><use transform="matrix(0.07407407407407407,0,0,0.07407407407407407,28.148148148148145,0)" xlink:href="#an"/><use transform="matrix(0.07407407407407407,0,0,0.07407407407407407,35.55555555555555,0)" xlink:href="#aj"/><use transform="matrix(0.07407407407407407,0,0,0.07407407407407407,41.407407407407405,0)" xlink:href="#bZ"/><use transform="matrix(0.07407407407407407,0,0,0.07407407407407407,54.740740740740726,0)" xlink:href="#ar"/><use transform="matrix(0.07407407407407407,0,0,0.07407407407407407,69.55555555555554,0)" xlink:href="#an"/><use transform="matrix(0.07407407407407407,0,0,0.07407407407407407,76.96296296296295,0)" xlink:href="#aj"/><use transform="matrix(0.07407407407407407,0,0,0.07407407407407407,82.8148148148148,0)" xlink:href="#ap"/><use transform="matrix(0.07407407407407407,0,0,0.07407407407407407,97.6296296296296,0)" xlink:href="#ak"/></g><g id="J"><use transform="matrix(0.07407407407407407,0,0,0.07407407407407407,0,0)" xlink:href="#am"/><use transform="matrix(0.07407407407407407,0,0,0.07407407407407407,14.814814814814813,0)" xlink:href="#ao"/><use transform="matrix(0.07407407407407407,0,0,0.07407407407407407,28.148148148148145,0)" xlink:href="#at"/><use transform="matrix(0.07407407407407407,0,0,0.07407407407407407,42.96296296296296,0)" xlink:href="#bB"/><use transform="matrix(0.07407407407407407,0,0,0.07407407407407407,57.77777777777777,0)" xlink:href="#bA"/><use transform="matrix(0.07407407407407407,0,0,0.07407407407407407,72.59259259259258,0)" xlink:href="#aj"/><use transform="matrix(0.07407407407407407,0,0,0.07407407407407407,78.44444444444443,0)" xlink:href="#ar"/><use transform="matrix(0.07407407407407407,0,0,0.07407407407407407,93.25925925925924,0)" xlink:href="#ao"/></g><path fill="#1071e5" d="M143 0L79-87 56-68V0H24v-261h32v163l83-92h37l-77 82L181 0h-38" id="ca"/><g id="K"><use transform="matrix(0.07407407407407407,0,0,0.07407407407407407,0,0)" xlink:href="#ca"/><use transform="matrix(0.07407407407407407,0,0,0.07407407407407407,13.333333333333332,0)" xlink:href="#at"/><use transform="matrix(0.07407407407407407,0,0,0.07407407407407407,28.148148148148145,0)" xlink:href="#au"/><use transform="matrix(0.07407407407407407,0,0,0.07407407407407407,36.96296296296296,0)" xlink:href="#ak"/><use transform="matrix(0.07407407407407407,0,0,0.07407407407407407,51.77777777777777,0)" xlink:href="#at"/><use transform="matrix(0.07407407407407407,0,0,0.07407407407407407,66.59259259259258,0)" xlink:href="#aq"/><use transform="matrix(0.07407407407407407,0,0,0.07407407407407407,72.44444444444443,0)" xlink:href="#bB"/><use transform="matrix(0.07407407407407407,0,0,0.07407407407407407,87.25925925925924,0)" xlink:href="#aj"/><use transform="matrix(0.07407407407407407,0,0,0.07407407407407407,93.11111111111109,0)" xlink:href="#ak"/><use transform="matrix(0.07407407407407407,0,0,0.07407407407407407,107.92592592592591,0)" xlink:href="#aj"/><use transform="matrix(0.07407407407407407,0,0,0.07407407407407407,113.77777777777774,0)" xlink:href="#an"/><use transform="matrix(0.07407407407407407,0,0,0.07407407407407407,121.18518518518515,0)" xlink:href="#aj"/><use transform="matrix(0.07407407407407407,0,0,0.07407407407407407,127.037037037037,0)" xlink:href="#ar"/><use transform="matrix(0.07407407407407407,0,0,0.07407407407407407,141.85185185185182,0)" xlink:href="#aq"/><use transform="matrix(0.07407407407407407,0,0,0.07407407407407407,147.70370370370367,0)" xlink:href="#aj"/><use transform="matrix(0.07407407407407407,0,0,0.07407407407407407,153.55555555555551,0)" xlink:href="#aw"/><use transform="matrix(0.07407407407407407,0,0,0.07407407407407407,166.88888888888886,0)" xlink:href="#at"/><use transform="matrix(0.07407407407407407,0,0,0.07407407407407407,181.70370370370367,0)" xlink:href="#au"/></g><g id="L"><use transform="matrix(0.07407407407407407,0,0,0.07407407407407407,0,0)" xlink:href="#bA"/><use transform="matrix(0.07407407407407407,0,0,0.07407407407407407,14.814814814814813,0)" xlink:href="#aj"/><use transform="matrix(0.07407407407407407,0,0,0.07407407407407407,20.666666666666664,0)" xlink:href="#ar"/><use transform="matrix(0.07407407407407407,0,0,0.07407407407407407,35.48148148148148,0)" xlink:href="#ao"/><use transform="matrix(0.07407407407407407,0,0,0.07407407407407407,48.81481481481481,0)" xlink:href="#bB"/><use transform="matrix(0.07407407407407407,0,0,0.07407407407407407,63.62962962962962,0)" xlink:href="#aj"/><use transform="matrix(0.07407407407407407,0,0,0.07407407407407407,69.48148148148147,0)" xlink:href="#ak"/><use transform="matrix(0.07407407407407407,0,0,0.07407407407407407,84.29629629629628,0)" xlink:href="#aj"/><use transform="matrix(0.07407407407407407,0,0,0.07407407407407407,90.14814814814812,0)" xlink:href="#an"/><use transform="matrix(0.07407407407407407,0,0,0.07407407407407407,97.55555555555553,0)" xlink:href="#aj"/><use transform="matrix(0.07407407407407407,0,0,0.07407407407407407,103.40740740740736,0)" xlink:href="#ar"/><use transform="matrix(0.07407407407407407,0,0,0.07407407407407407,118.22222222222219,0)" xlink:href="#aq"/><use transform="matrix(0.07407407407407407,0,0,0.07407407407407407,124.07407407407403,0)" xlink:href="#aj"/><use transform="matrix(0.07407407407407407,0,0,0.07407407407407407,129.9259259259259,0)" xlink:href="#aw"/><use transform="matrix(0.07407407407407407,0,0,0.07407407407407407,143.25925925925924,0)" xlink:href="#at"/><use transform="matrix(0.07407407407407407,0,0,0.07407407407407407,158.07407407407402,0)" xlink:href="#au"/></g><g id="M"><use transform="matrix(0.07407407407407407,0,0,0.07407407407407407,0,0)" xlink:href="#ca"/><use transform="matrix(0.07407407407407407,0,0,0.07407407407407407,13.333333333333332,0)" xlink:href="#at"/><use transform="matrix(0.07407407407407407,0,0,0.07407407407407407,28.148148148148145,0)" xlink:href="#au"/><use transform="matrix(0.07407407407407407,0,0,0.07407407407407407,36.96296296296296,0)" xlink:href="#ak"/><use transform="matrix(0.07407407407407407,0,0,0.07407407407407407,51.77777777777777,0)" xlink:href="#at"/><use transform="matrix(0.07407407407407407,0,0,0.07407407407407407,66.59259259259258,0)" xlink:href="#aq"/><use transform="matrix(0.07407407407407407,0,0,0.07407407407407407,72.44444444444443,0)" xlink:href="#bB"/><use transform="matrix(0.07407407407407407,0,0,0.07407407407407407,87.25925925925924,0)" xlink:href="#au"/><use transform="matrix(0.07407407407407407,0,0,0.07407407407407407,96.07407407407405,0)" xlink:href="#at"/><use transform="matrix(0.07407407407407407,0,0,0.07407407407407407,110.88888888888884,0)" xlink:href="#bE"/><use transform="matrix(0.07407407407407407,0,0,0.07407407407407407,125.70370370370367,0)" xlink:href="#am"/><use transform="matrix(0.07407407407407407,0,0,0.07407407407407407,140.51851851851848,0)" xlink:href="#aq"/><use transform="matrix(0.07407407407407407,0,0,0.07407407407407407,146.37037037037032,0)" xlink:href="#ar"/><use transform="matrix(0.07407407407407407,0,0,0.07407407407407407,161.18518518518513,0)" xlink:href="#au"/><use transform="matrix(0.07407407407407407,0,0,0.07407407407407407,169.99999999999994,0)" xlink:href="#aj"/><use transform="matrix(0.07407407407407407,0,0,0.07407407407407407,175.85185185185176,0)" xlink:href="#aw"/><use transform="matrix(0.07407407407407407,0,0,0.07407407407407407,189.18518518518513,0)" xlink:href="#at"/><use transform="matrix(0.07407407407407407,0,0,0.07407407407407407,203.99999999999994,0)" xlink:href="#au"/></g><g id="N"><use transform="matrix(0.07407407407407407,0,0,0.07407407407407407,0,0)" xlink:href="#bA"/><use transform="matrix(0.07407407407407407,0,0,0.07407407407407407,14.814814814814813,0)" xlink:href="#aj"/><use transform="matrix(0.07407407407407407,0,0,0.07407407407407407,20.666666666666664,0)" xlink:href="#ar"/><use transform="matrix(0.07407407407407407,0,0,0.07407407407407407,35.48148148148148,0)" xlink:href="#ao"/><use transform="matrix(0.07407407407407407,0,0,0.07407407407407407,48.81481481481481,0)" xlink:href="#bB"/><use transform="matrix(0.07407407407407407,0,0,0.07407407407407407,63.62962962962962,0)" xlink:href="#au"/><use transform="matrix(0.07407407407407407,0,0,0.07407407407407407,72.44444444444443,0)" xlink:href="#at"/><use transform="matrix(0.07407407407407407,0,0,0.07407407407407407,87.25925925925924,0)" xlink:href="#bE"/><use transform="matrix(0.07407407407407407,0,0,0.07407407407407407,102.07407407407405,0)" xlink:href="#am"/><use transform="matrix(0.07407407407407407,0,0,0.07407407407407407,116.88888888888887,0)" xlink:href="#aq"/><use transform="matrix(0.07407407407407407,0,0,0.07407407407407407,122.7407407407407,0)" xlink:href="#ar"/><use transform="matrix(0.07407407407407407,0,0,0.07407407407407407,137.55555555555551,0)" xlink:href="#au"/><use transform="matrix(0.07407407407407407,0,0,0.07407407407407407,146.37037037037032,0)" xlink:href="#aj"/><use transform="matrix(0.07407407407407407,0,0,0.07407407407407407,152.22222222222217,0)" xlink:href="#aw"/><use transform="matrix(0.07407407407407407,0,0,0.07407407407407407,165.55555555555551,0)" xlink:href="#at"/><use transform="matrix(0.07407407407407407,0,0,0.07407407407407407,180.37037037037032,0)" xlink:href="#au"/></g><g id="O"><use transform="matrix(0.07407407407407407,0,0,0.07407407407407407,0,0)" xlink:href="#ar"/><use transform="matrix(0.07407407407407407,0,0,0.07407407407407407,14.814814814814813,0)" xlink:href="#ax"/><use transform="matrix(0.07407407407407407,0,0,0.07407407407407407,28.148148148148145,0)" xlink:href="#an"/><use transform="matrix(0.07407407407407407,0,0,0.07407407407407407,35.55555555555555,0)" xlink:href="#aj"/><use transform="matrix(0.07407407407407407,0,0,0.07407407407407407,41.407407407407405,0)" xlink:href="#bZ"/><use transform="matrix(0.07407407407407407,0,0,0.07407407407407407,54.740740740740726,0)" xlink:href="#aj"/><use transform="matrix(0.07407407407407407,0,0,0.07407407407407407,60.59259259259258,0)" xlink:href="#an"/><use transform="matrix(0.07407407407407407,0,0,0.07407407407407407,67.99999999999999,0)" xlink:href="#as"/><use transform="matrix(0.07407407407407407,0,0,0.07407407407407407,81.33333333333331,0)" xlink:href="#bB"/><use transform="matrix(0.07407407407407407,0,0,0.07407407407407407,96.14814814814812,0)" xlink:href="#au"/><use transform="matrix(0.07407407407407407,0,0,0.07407407407407407,104.96296296296293,0)" xlink:href="#at"/><use transform="matrix(0.07407407407407407,0,0,0.07407407407407407,119.77777777777774,0)" xlink:href="#bE"/><use transform="matrix(0.07407407407407407,0,0,0.07407407407407407,134.59259259259255,0)" xlink:href="#am"/><use transform="matrix(0.07407407407407407,0,0,0.07407407407407407,149.40740740740736,0)" xlink:href="#aq"/><use transform="matrix(0.07407407407407407,0,0,0.07407407407407407,155.2592592592592,0)" xlink:href="#ar"/><use transform="matrix(0.07407407407407407,0,0,0.07407407407407407,170.07407407407402,0)" xlink:href="#au"/><use transform="matrix(0.07407407407407407,0,0,0.07407407407407407,178.88888888888886,0)" xlink:href="#aj"/><use transform="matrix(0.07407407407407407,0,0,0.07407407407407407,184.74074074074068,0)" xlink:href="#aw"/><use transform="matrix(0.07407407407407407,0,0,0.07407407407407407,198.07407407407402,0)" xlink:href="#at"/><use transform="matrix(0.07407407407407407,0,0,0.07407407407407407,212.88888888888886,0)" xlink:href="#au"/></g><path fill="#3a414a" d="M67-125c0 53 21 87 73 88 37 1 54-22 65-47l45 17C233-25 199 4 140 4 58 4 20-42 15-125 8-235 124-281 211-232c18 10 29 29 36 50l-46 12c-8-25-30-41-62-41-52 0-71 34-72 86" id="cb"/><path fill="#3a414a" d="M128 0H69L1-190h53L99-40l48-150h52" id="cc"/><path fill="#3a414a" d="M182-182c0 78-84 86-111 141h115V0H12c-6-101 99-100 120-180 1-22-12-31-33-32-23 0-32 14-35 34l-49-3c5-45 32-70 84-70 51 0 83 22 83 69" id="cd"/><g id="P"><use transform="matrix(0.09876543209876544,0,0,0.09876543209876544,0,0)" xlink:href="#cb"/><use transform="matrix(0.09876543209876544,0,0,0.09876543209876544,25.58024691358025,0)" xlink:href="#af"/><use transform="matrix(0.09876543209876544,0,0,0.09876543209876544,47.20987654320988,0)" xlink:href="#aJ"/><use transform="matrix(0.09876543209876544,0,0,0.09876543209876544,68.8395061728395,0)" xlink:href="#cc"/><use transform="matrix(0.09876543209876544,0,0,0.09876543209876544,88.5925925925926,0)" xlink:href="#cd"/><use transform="matrix(0.09876543209876544,0,0,0.09876543209876544,108.34567901234568,0)" xlink:href="#bX"/></g><path fill="#1071e5" d="M101-234c-31-9-42 10-38 44h38v23H63V0H32v-167H5v-23h27c-7-52 17-82 69-68v24" id="ce"/><g id="Q"><use transform="matrix(0.07407407407407407,0,0,0.07407407407407407,0,0)" xlink:href="#ce"/><use transform="matrix(0.07407407407407407,0,0,0.07407407407407407,7.4074074074074066,0)" xlink:href="#aj"/><use transform="matrix(0.07407407407407407,0,0,0.07407407407407407,13.259259259259258,0)" xlink:href="#aq"/><use transform="matrix(0.07407407407407407,0,0,0.07407407407407407,19.111111111111107,0)" xlink:href="#an"/><use transform="matrix(0.07407407407407407,0,0,0.07407407407407407,26.518518518518512,0)" xlink:href="#at"/><use transform="matrix(0.07407407407407407,0,0,0.07407407407407407,41.33333333333333,0)" xlink:href="#au"/><use transform="matrix(0.07407407407407407,0,0,0.07407407407407407,50.148148148148145,0)" xlink:href="#ao"/></g><g id="R"><use transform="matrix(0.07407407407407407,0,0,0.07407407407407407,0,0)" xlink:href="#ca"/><use transform="matrix(0.07407407407407407,0,0,0.07407407407407407,13.333333333333332,0)" xlink:href="#at"/><use transform="matrix(0.07407407407407407,0,0,0.07407407407407407,28.148148148148145,0)" xlink:href="#au"/><use transform="matrix(0.07407407407407407,0,0,0.07407407407407407,36.96296296296296,0)" xlink:href="#ak"/><use transform="matrix(0.07407407407407407,0,0,0.07407407407407407,51.77777777777777,0)" xlink:href="#at"/><use transform="matrix(0.07407407407407407,0,0,0.07407407407407407,66.59259259259258,0)" xlink:href="#aq"/><use transform="matrix(0.07407407407407407,0,0,0.07407407407407407,72.44444444444443,0)" xlink:href="#bB"/><use transform="matrix(0.07407407407407407,0,0,0.07407407407407407,87.25925925925924,0)" xlink:href="#ao"/><use transform="matrix(0.07407407407407407,0,0,0.07407407407407407,100.59259259259257,0)" xlink:href="#aj"/><use transform="matrix(0.07407407407407407,0,0,0.07407407407407407,106.44444444444443,0)" xlink:href="#aw"/><use transform="matrix(0.07407407407407407,0,0,0.07407407407407407,119.77777777777774,0)" xlink:href="#at"/></g><g id="S"><use transform="matrix(0.07407407407407407,0,0,0.07407407407407407,0,0)" xlink:href="#ao"/><use transform="matrix(0.07407407407407407,0,0,0.07407407407407407,13.333333333333332,0)" xlink:href="#an"/><use transform="matrix(0.07407407407407407,0,0,0.07407407407407407,20.74074074074074,0)" xlink:href="#au"/><use transform="matrix(0.07407407407407407,0,0,0.07407407407407407,29.555555555555557,0)" xlink:href="#aj"/><use transform="matrix(0.07407407407407407,0,0,0.07407407407407407,35.407407407407405,0)" xlink:href="#bz"/><use transform="matrix(0.07407407407407407,0,0,0.07407407407407407,50.222222222222214,0)" xlink:href="#at"/><use transform="matrix(0.07407407407407407,0,0,0.07407407407407407,65.03703703703702,0)" xlink:href="#ao"/></g><g id="T"><use transform="matrix(0.07407407407407407,0,0,0.07407407407407407,0,0)" xlink:href="#al"/><use transform="matrix(0.07407407407407407,0,0,0.07407407407407407,14.814814814814813,0)" xlink:href="#ar"/><use transform="matrix(0.07407407407407407,0,0,0.07407407407407407,29.629629629629626,0)" xlink:href="#bz"/><use transform="matrix(0.07407407407407407,0,0,0.07407407407407407,44.44444444444444,0)" xlink:href="#bz"/><use transform="matrix(0.07407407407407407,0,0,0.07407407407407407,59.25925925925925,0)" xlink:href="#aj"/><use transform="matrix(0.07407407407407407,0,0,0.07407407407407407,65.1111111111111,0)" xlink:href="#ak"/><use transform="matrix(0.07407407407407407,0,0,0.07407407407407407,79.92592592592591,0)" xlink:href="#bE"/></g><g id="U"><use transform="matrix(0.07407407407407407,0,0,0.07407407407407407,0,0)" xlink:href="#bz"/><use transform="matrix(0.07407407407407407,0,0,0.07407407407407407,14.814814814814813,0)" xlink:href="#ar"/><use transform="matrix(0.07407407407407407,0,0,0.07407407407407407,29.629629629629626,0)" xlink:href="#an"/><use transform="matrix(0.07407407407407407,0,0,0.07407407407407407,37.03703703703703,0)" xlink:href="#ar"/><use transform="matrix(0.07407407407407407,0,0,0.07407407407407407,51.85185185185185,0)" xlink:href="#bB"/><use transform="matrix(0.07407407407407407,0,0,0.07407407407407407,66.66666666666666,0)" xlink:href="#ce"/><use transform="matrix(0.07407407407407407,0,0,0.07407407407407407,74.07407407407406,0)" xlink:href="#ap"/><use transform="matrix(0.07407407407407407,0,0,0.07407407407407407,88.88888888888887,0)" xlink:href="#au"/><use transform="matrix(0.07407407407407407,0,0,0.07407407407407407,97.70370370370368,0)" xlink:href="#av"/><use transform="matrix(0.07407407407407407,0,0,0.07407407407407407,119.8518518518518,0)" xlink:href="#ar"/><use transform="matrix(0.07407407407407407,0,0,0.07407407407407407,134.66666666666663,0)" xlink:href="#an"/></g><g id="V"><use transform="matrix(0.07407407407407407,0,0,0.07407407407407407,0,0)" xlink:href="#bz"/><use transform="matrix(0.07407407407407407,0,0,0.07407407407407407,14.814814814814813,0)" xlink:href="#aj"/><use transform="matrix(0.07407407407407407,0,0,0.07407407407407407,20.666666666666664,0)" xlink:href="#aq"/><use transform="matrix(0.07407407407407407,0,0,0.07407407407407407,26.518518518518515,0)" xlink:href="#ar"/><use transform="matrix(0.07407407407407407,0,0,0.07407407407407407,41.33333333333333,0)" xlink:href="#an"/><use transform="matrix(0.07407407407407407,0,0,0.07407407407407407,48.740740740740726,0)" xlink:href="#aj"/><use transform="matrix(0.07407407407407407,0,0,0.07407407407407407,54.59259259259258,0)" xlink:href="#ap"/><use transform="matrix(0.07407407407407407,0,0,0.07407407407407407,69.40740740740739,0)" xlink:href="#ak"/><use transform="matrix(0.07407407407407407,0,0,0.07407407407407407,84.2222222222222,0)" xlink:href="#bB"/><use transform="matrix(0.07407407407407407,0,0,0.07407407407407407,99.03703703703701,0)" xlink:href="#au"/><use transform="matrix(0.07407407407407407,0,0,0.07407407407407407,107.85185185185182,0)" xlink:href="#ar"/><use transform="matrix(0.07407407407407407,0,0,0.07407407407407407,122.66666666666663,0)" xlink:href="#an"/><use transform="matrix(0.07407407407407407,0,0,0.07407407407407407,130.07407407407405,0)" xlink:href="#at"/></g><g id="W"><use transform="matrix(0.07407407407407407,0,0,0.07407407407407407,0,0)" xlink:href="#bA"/><use transform="matrix(0.07407407407407407,0,0,0.07407407407407407,14.814814814814813,0)" xlink:href="#aj"/><use transform="matrix(0.07407407407407407,0,0,0.07407407407407407,20.666666666666664,0)" xlink:href="#ar"/><use transform="matrix(0.07407407407407407,0,0,0.07407407407407407,35.48148148148148,0)" xlink:href="#ao"/><use transform="matrix(0.07407407407407407,0,0,0.07407407407407407,48.81481481481481,0)" xlink:href="#bB"/><use transform="matrix(0.07407407407407407,0,0,0.07407407407407407,63.62962962962962,0)" xlink:href="#aj"/><use transform="matrix(0.07407407407407407,0,0,0.07407407407407407,69.48148148148147,0)" xlink:href="#ak"/><use transform="matrix(0.07407407407407407,0,0,0.07407407407407407,84.29629629629628,0)" xlink:href="#aj"/><use transform="matrix(0.07407407407407407,0,0,0.07407407407407407,90.14814814814812,0)" xlink:href="#an"/><use transform="matrix(0.07407407407407407,0,0,0.07407407407407407,97.55555555555553,0)" xlink:href="#aj"/><use transform="matrix(0.07407407407407407,0,0,0.07407407407407407,103.40740740740736,0)" xlink:href="#ar"/><use transform="matrix(0.07407407407407407,0,0,0.07407407407407407,118.22222222222219,0)" xlink:href="#aq"/><use transform="matrix(0.07407407407407407,0,0,0.07407407407407407,124.07407407407403,0)" xlink:href="#aj"/><use transform="matrix(0.07407407407407407,0,0,0.07407407407407407,129.9259259259259,0)" xlink:href="#aw"/><use transform="matrix(0.07407407407407407,0,0,0.07407407407407407,143.25925925925924,0)" xlink:href="#at"/><use transform="matrix(0.07407407407407407,0,0,0.07407407407407407,158.07407407407402,0)" xlink:href="#au"/></g><g id="X"><use transform="matrix(0.07407407407407407,0,0,0.07407407407407407,0,0)" xlink:href="#ay"/><use transform="matrix(0.07407407407407407,0,0,0.07407407407407407,10.37037037037037,0)" xlink:href="#ay"/><use transform="matrix(0.07407407407407407,0,0,0.07407407407407407,20.74074074074074,0)" xlink:href="#az"/><use transform="matrix(0.07407407407407407,0,0,0.07407407407407407,26.59259259259259,0)" xlink:href="#aA"/><use transform="matrix(0.07407407407407407,0,0,0.07407407407407407,41.407407407407405,0)" xlink:href="#aB"/><use transform="matrix(0.07407407407407407,0,0,0.07407407407407407,56.22222222222221,0)" xlink:href="#aC"/><use transform="matrix(0.07407407407407407,0,0,0.07407407407407407,71.03703703703702,0)" xlink:href="#aD"/><use transform="matrix(0.07407407407407407,0,0,0.07407407407407407,79.85185185185183,0)" xlink:href="#az"/><use transform="matrix(0.07407407407407407,0,0,0.07407407407407407,85.70370370370368,0)" xlink:href="#aE"/><use transform="matrix(0.07407407407407407,0,0,0.07407407407407407,93.11111111111109,0)" xlink:href="#aC"/><use transform="matrix(0.07407407407407407,0,0,0.07407407407407407,107.92592592592591,0)" xlink:href="#aF"/><use transform="matrix(0.07407407407407407,0,0,0.07407407407407407,122.7407407407407,0)" xlink:href="#ay"/><use transform="matrix(0.07407407407407407,0,0,0.07407407407407407,133.1111111111111,0)" xlink:href="#ay"/></g><path fill="#3a414a" d="M144 0l-44-69L55 0H2l70-98-66-92h53l41 62 40-62h54l-67 91 71 99h-54" id="cf"/><path fill="#3a414a" d="M24-248c93 1 206-16 204 79-1 75-69 88-152 82V0H24v-248zm52 121c47 0 100 7 100-41 0-47-54-39-100-39v80" id="cg"/><path fill="#3a414a" d="M195-6C206 82 75 100 31 46c-4-6-6-13-8-21l49-6c3 16 16 24 34 25 40 0 42-37 40-79-11 22-30 35-61 35-53 0-70-43-70-97 0-56 18-96 73-97 30 0 46 14 59 34l2-30h47zm-90-29c32 0 41-27 41-63 0-35-9-62-40-62-32 0-39 29-40 63 0 36 9 62 39 62" id="ch"/><g id="Y"><use transform="matrix(0.09876543209876544,0,0,0.09876543209876544,0,0)" xlink:href="#ae"/><use transform="matrix(0.09876543209876544,0,0,0.09876543209876544,29.530864197530867,0)" xlink:href="#aM"/><use transform="matrix(0.09876543209876544,0,0,0.09876543209876544,49.283950617283956,0)" xlink:href="#cf"/><use transform="matrix(0.09876543209876544,0,0,0.09876543209876544,69.03703703703704,0)" xlink:href="#cg"/><use transform="matrix(0.09876543209876544,0,0,0.09876543209876544,92.74074074074075,0)" xlink:href="#af"/><use transform="matrix(0.09876543209876544,0,0,0.09876543209876544,114.37037037037038,0)" xlink:href="#af"/><use transform="matrix(0.09876543209876544,0,0,0.09876543209876544,136,0)" xlink:href="#ai"/><use transform="matrix(0.09876543209876544,0,0,0.09876543209876544,145.87654320987656,0)" xlink:href="#aL"/><use transform="matrix(0.09876543209876544,0,0,0.09876543209876544,155.75308641975312,0)" xlink:href="#aJ"/><use transform="matrix(0.09876543209876544,0,0,0.09876543209876544,177.38271604938274,0)" xlink:href="#ch"/><use transform="matrix(0.09876543209876544,0,0,0.09876543209876544,199.01234567901236,0)" xlink:href="#cd"/><use transform="matrix(0.09876543209876544,0,0,0.09876543209876544,218.76543209876544,0)" xlink:href="#bX"/></g><g id="Z"><use transform="matrix(0.07407407407407407,0,0,0.07407407407407407,0,0)" xlink:href="#al"/><use transform="matrix(0.07407407407407407,0,0,0.07407407407407407,14.814814814814813,0)" xlink:href="#ap"/><use transform="matrix(0.07407407407407407,0,0,0.07407407407407407,29.629629629629626,0)" xlink:href="#ap"/><use transform="matrix(0.07407407407407407,0,0,0.07407407407407407,44.44444444444444,0)" xlink:href="#aq"/><use transform="matrix(0.07407407407407407,0,0,0.07407407407407407,50.29629629629629,0)" xlink:href="#bB"/><use transform="matrix(0.07407407407407407,0,0,0.07407407407407407,65.1111111111111,0)" xlink:href="#ao"/><use transform="matrix(0.07407407407407407,0,0,0.07407407407407407,78.44444444444443,0)" xlink:href="#aj"/><use transform="matrix(0.07407407407407407,0,0,0.07407407407407407,84.29629629629628,0)" xlink:href="#aw"/><use transform="matrix(0.07407407407407407,0,0,0.07407407407407407,97.6296296296296,0)" xlink:href="#at"/></g><g id="aa"><use transform="matrix(0.07407407407407407,0,0,0.07407407407407407,0,0)" xlink:href="#ao"/><use transform="matrix(0.07407407407407407,0,0,0.07407407407407407,13.333333333333332,0)" xlink:href="#an"/><use transform="matrix(0.07407407407407407,0,0,0.07407407407407407,20.74074074074074,0)" xlink:href="#au"/><use transform="matrix(0.07407407407407407,0,0,0.07407407407407407,29.555555555555557,0)" xlink:href="#aj"/><use transform="matrix(0.07407407407407407,0,0,0.07407407407407407,35.407407407407405,0)" xlink:href="#bz"/><use transform="matrix(0.07407407407407407,0,0,0.07407407407407407,50.222222222222214,0)" xlink:href="#at"/><use transform="matrix(0.07407407407407407,0,0,0.07407407407407407,65.03703703703702,0)" xlink:href="#ao"/></g><g id="ab"><use transform="matrix(0.07407407407407407,0,0,0.07407407407407407,0,0)" xlink:href="#bz"/><use transform="matrix(0.07407407407407407,0,0,0.07407407407407407,14.814814814814813,0)" xlink:href="#ar"/><use transform="matrix(0.07407407407407407,0,0,0.07407407407407407,29.629629629629626,0)" xlink:href="#an"/><use transform="matrix(0.07407407407407407,0,0,0.07407407407407407,37.03703703703703,0)" xlink:href="#ar"/><use transform="matrix(0.07407407407407407,0,0,0.07407407407407407,51.85185185185185,0)" xlink:href="#bB"/><use transform="matrix(0.07407407407407407,0,0,0.07407407407407407,66.66666666666666,0)" xlink:href="#ce"/><use transform="matrix(0.07407407407407407,0,0,0.07407407407407407,74.07407407407406,0)" xlink:href="#ap"/><use transform="matrix(0.07407407407407407,0,0,0.07407407407407407,88.88888888888887,0)" xlink:href="#au"/><use transform="matrix(0.07407407407407407,0,0,0.07407407407407407,97.70370370370368,0)" xlink:href="#av"/><use transform="matrix(0.07407407407407407,0,0,0.07407407407407407,119.8518518518518,0)" xlink:href="#ar"/><use transform="matrix(0.07407407407407407,0,0,0.07407407407407407,134.66666666666663,0)" xlink:href="#an"/></g><path fill="#333" d="M67-125c0 53 21 87 73 88 37 1 54-22 65-47l45 17C233-25 199 4 140 4 58 4 20-42 15-125 8-235 124-281 211-232c18 10 29 29 36 50l-46 12c-8-25-30-41-62-41-52 0-71 34-72 86" id="ci"/><path fill="#333" d="M110-194c64 0 96 36 96 99 0 64-35 99-97 99-61 0-95-36-95-99 0-62 34-99 96-99zm-1 164c35 0 45-28 45-65 0-40-10-65-43-65-34 0-45 26-45 65 0 36 10 65 43 65" id="cj"/><path fill="#333" d="M220-157c-53 9-28 100-34 157h-49v-107c1-27-5-49-29-50C55-147 81-57 75 0H25l-1-190h47c2 12-1 28 3 38 10-53 101-56 108 0 13-22 24-43 59-42 82 1 51 116 57 194h-49v-107c-1-25-5-48-29-50" id="ck"/><path fill="#333" d="M135-194c53 0 70 44 70 98 0 56-19 98-73 100-31 1-45-17-59-34 3 33 2 69 2 105H25l-1-265h48c2 10 0 23 3 31 11-24 29-35 60-35zM114-30c33 0 39-31 40-66 0-38-9-64-40-64-56 0-55 130 0 130" id="cl"/><path fill="#333" d="M137-138c1-29-70-34-71-4 15 46 118 7 119 86 1 83-164 76-172 9l43-7c4 19 20 25 44 25 33 8 57-30 24-41C81-84 22-81 20-136c-2-80 154-74 161-7" id="cm"/><path fill="#333" d="M25-224v-37h50v37H25zM25 0v-190h50V0H25" id="cn"/><path fill="#333" d="M115-3C79 11 28 4 28-45v-112H4v-33h27l15-45h31v45h36v33H77v99c-1 23 16 31 38 25v30" id="co"/><path fill="#333" d="M135-194c87-1 58 113 63 194h-50c-7-57 23-157-34-157-59 0-34 97-39 157H25l-1-190h47c2 12-1 28 3 38 12-26 28-41 61-42" id="cp"/><g id="ac"><use transform="matrix(0.06172839506172839,0,0,0.06172839506172839,0,0)" xlink:href="#ci"/><use transform="matrix(0.06172839506172839,0,0,0.06172839506172839,15.987654320987653,0)" xlink:href="#cj"/><use transform="matrix(0.06172839506172839,0,0,0.06172839506172839,29.50617283950617,0)" xlink:href="#ck"/><use transform="matrix(0.06172839506172839,0,0,0.06172839506172839,49.25925925925925,0)" xlink:href="#cl"/><use transform="matrix(0.06172839506172839,0,0,0.06172839506172839,62.77777777777777,0)" xlink:href="#cj"/><use transform="matrix(0.06172839506172839,0,0,0.06172839506172839,76.29629629629629,0)" xlink:href="#cm"/><use transform="matrix(0.06172839506172839,0,0,0.06172839506172839,88.64197530864197,0)" xlink:href="#cn"/><use transform="matrix(0.06172839506172839,0,0,0.06172839506172839,94.81481481481481,0)" xlink:href="#co"/><use transform="matrix(0.06172839506172839,0,0,0.06172839506172839,102.1604938271605,0)" xlink:href="#cn"/><use transform="matrix(0.06172839506172839,0,0,0.06172839506172839,108.33333333333333,0)" xlink:href="#cj"/><use transform="matrix(0.06172839506172839,0,0,0.06172839506172839,121.85185185185185,0)" xlink:href="#cp"/></g><path fill="#333" d="M240-174c0 40-23 61-54 70L253 0h-59l-57-94H76V0H24v-248c93 4 217-23 216 74zM76-134c48-2 112 12 112-38 0-48-66-32-112-35v73" id="cq"/><path fill="#333" d="M185-48c-13 30-37 53-82 52C43 2 14-33 14-96s30-98 90-98c62 0 83 45 84 108H66c0 31 8 55 39 56 18 0 30-7 34-22zm-45-69c5-46-57-63-70-21-2 6-4 13-4 21h74" id="cr"/><path fill="#333" d="M25 0v-261h50V0H25" id="cs"/><path fill="#333" d="M133-34C117-15 103 5 69 4 32 3 11-16 11-54c-1-60 55-63 116-61 1-26-3-47-28-47-18 1-26 9-28 27l-52-2c7-38 36-58 82-57s74 22 75 68l1 82c-1 14 12 18 25 15v27c-30 8-71 5-69-32zm-48 3c29 0 43-24 42-57-32 0-66-3-65 30 0 17 8 27 23 27" id="ct"/><path fill="#333" d="M114-157C55-157 80-60 75 0H25v-261h50l-1 109c12-26 28-41 61-42 86-1 58 113 63 194h-50c-7-57 23-157-34-157" id="cu"/><g id="ad"><use transform="matrix(0.06172839506172839,0,0,0.06172839506172839,0,0)" xlink:href="#cq"/><use transform="matrix(0.06172839506172839,0,0,0.06172839506172839,15.987654320987653,0)" xlink:href="#cr"/><use transform="matrix(0.06172839506172839,0,0,0.06172839506172839,28.333333333333332,0)" xlink:href="#cs"/><use transform="matrix(0.06172839506172839,0,0,0.06172839506172839,34.50617283950617,0)" xlink:href="#ct"/><use transform="matrix(0.06172839506172839,0,0,0.06172839506172839,46.85185185185185,0)" xlink:href="#co"/><use transform="matrix(0.06172839506172839,0,0,0.06172839506172839,54.197530864197525,0)" xlink:href="#cn"/><use transform="matrix(0.06172839506172839,0,0,0.06172839506172839,60.37037037037037,0)" xlink:href="#cj"/><use transform="matrix(0.06172839506172839,0,0,0.06172839506172839,73.88888888888889,0)" xlink:href="#cp"/><use transform="matrix(0.06172839506172839,0,0,0.06172839506172839,87.4074074074074,0)" xlink:href="#cm"/><use transform="matrix(0.06172839506172839,0,0,0.06172839506172839,99.75308641975309,0)" xlink:href="#cu"/><use transform="matrix(0.06172839506172839,0,0,0.06172839506172839,113.27160493827161,0)" xlink:href="#cn"/><use transform="matrix(0.06172839506172839,0,0,0.06172839506172839,119.44444444444444,0)" xlink:href="#cl"/></g></defs></g></svg>